<?xml version="1.0" encoding="utf-8"?>
<!-- Generator: Adobe Illustrator 22.1.0, SVG Export Plug-In . SVG Version: 6.00 Build 0)  -->
<svg version="1.1" id="Layer_1" xmlns="http://www.w3.org/2000/svg" xmlns:xlink="http://www.w3.org/1999/xlink" x="0px" y="0px"
	 viewBox="0 0 800 218" style="enable-background:new 0 0 800 218;" xml:space="preserve">
<style type="text/css">
	.st0{fill:#FFFFFF;}
</style>
<g>
	<path class="st0" d="M45.2509766,210.3096008H12.0677757L48.8448868,10.6796875h42.5776596l36.7771149,199.6299133H95.0164719
		L88.936615,166.074646H51.3308372L45.2509766,210.3096008z M56.3120384,136.2060242h27.6433601L70.4083862,50.5013733h-0.5493317
		L56.3120384,136.2060242z"/>
	<path class="st0" d="M148.1058502,210.3096008V10.6796875h91.7938385v29.8686066h-57.5119781v51.4227753h44.2349701v29.859314
		h-44.2349701v58.6199341h61.3852081v29.8592834H148.1058502z"/>
	<path class="st0" d="M290.7731628,40.5482941h-33.183197V10.6796875h100.6482544v29.8686066h-33.183197v169.7613068h-34.2818604
		V40.5482941z"/>
	<path class="st0" d="M378.4237366,210.3096008V10.6796875h34.2818604v81.2913818h36.4978027V10.6796875H483.48526v199.6299133
		h-34.2818604v-88.4792175h-36.4978027v88.4792175H378.4237366z"/>
	<path class="st0" d="M536.574646,210.3096008h-33.183197l36.7771301-199.6299133h42.5776367l36.7771606,199.6299133h-33.1832275
		l-6.079834-44.2349548H542.654541L536.574646,210.3096008z M547.6357422,136.2060242h27.6433105l-13.5469971-85.7046509h-0.5493164
		L547.6357422,136.2060242z"/>
	<path class="st0" d="M761.8326416,69.6018372c0,0,6.2396851,34.0000305-8.6885986,46.0809326
		c0,0,5.1737671-27.7851868-13.7618408-54.7874908c-18.9356689-27.0023499-24.7355347-30.3177338-28.9975586-53.2048798
		c0,0-27.0166626,16.4446564-25.5760498,38.330368c1.2162476,18.4715881,11.8969727,36.8567352-0.651001,46.0672455
		c0,0-4.9853516-20.3164062-16.7955933-29.2761383c0,0-0.1403198,19.486496-15.4421997,36.8448944
		c-15.7452393,17.8611145-46.2115479,65.7137146,47.4146729,110.3807373l0.0509033-0.0011902l1.892395-44.2799377h-15.9894409
		l-11.5852661-9.7171326v-19.0605469l11.5388184-9.8105774l14.1668091,0.0933228l4.8587646-6.7272339h11.9594116
		l4.8587646,6.7272339l14.166626-0.0933228l11.5395508,9.8105774v19.0605469l-11.5859985,9.7171326h-15.9887085
		l1.8704834,43.7714539l0.0089111-0.0002136c5.5765381-3.1401672,24.8718872-14.075592,33.2720337-19.7458496
		C764.2426758,183.1165161,819.9736938,152.9416504,761.8326416,69.6018372z"/>
</g>
</svg>
