<?xml version="1.0" encoding="utf-8"?>
<!-- Generator: Adobe Illustrator 22.0.1, SVG Export Plug-In . SVG Version: 6.00 Build 0)  -->
<svg version="1.1" id="Layer_1" xmlns="http://www.w3.org/2000/svg" xmlns:xlink="http://www.w3.org/1999/xlink" x="0px" y="0px"
	 viewBox="0 0 775.1977539 203.2016449" style="enable-background:new 0 0 775.1977539 203.2016449;" xml:space="preserve">
<style type="text/css">
	.st0{fill:#FFFFFF;}
</style>
<g>
	<path class="st0" d="M32.8498688,202.9104309H-0.3333333L36.443779,3.2805126h42.5776596l36.7771225,199.6299133h-33.183197
		l-6.0798569-44.2349548H38.9297295L32.8498688,202.9104309z M43.9109306,128.8068542h27.6433601L58.0072784,43.1021996h-0.5493317
		L43.9109306,128.8068542z"/>
	<path class="st0" d="M135.7047424,202.9104309V3.2805126h91.7938385v29.8686085h-57.5119781v51.4227715h44.2349701v29.859314
		h-44.2349701v58.6199417h61.3852081v29.8592834H135.7047424z"/>
	<path class="st0" d="M278.3720398,33.1491203h-33.183197V3.2805126h100.6482544v29.8686085h-33.183197v169.7613068h-34.2818604
		V33.1491203z"/>
	<path class="st0" d="M366.0226135,202.9104309V3.2805126h34.2818604v81.2913818h36.4978027V3.2805126h34.2818604v199.6299133
		h-34.2818604v-88.4792252h-36.4978027v88.4792252H366.0226135z"/>
	<path class="st0" d="M524.1735229,202.9104309h-33.183197L527.7674561,3.2805126h42.5776367l36.7771606,199.6299133h-33.1832275
		l-6.079834-44.2349548H530.253418L524.1735229,202.9104309z M535.2346191,128.8068542h27.6433105l-13.5469971-85.7046509
		h-0.5493164L535.2346191,128.8068542z"/>
	<path class="st0" d="M749.4315186,62.2026634c0,0,6.2396851,34.0000267-8.6885986,46.0809288
		c0,0,5.1737671-27.7851868-13.7618408-54.787487c-18.9356689-27.0023518-24.7355347-30.3177357-28.9975586-53.2048798
		c0,0-27.0166626,16.4446564-25.5760498,38.330368c1.2162476,18.4715881,11.8969727,36.8567314-0.651001,46.0672417
		c0,0-4.9853516-20.3164062-16.7955933-29.2761345c0,0-0.1403198,19.4864922-15.4421997,36.8448906
		c-15.7452393,17.8611145-46.2115479,65.7137222,47.4146729,110.3807449l0.0509033-0.0011902l1.892395-44.2799377H672.887207
		l-11.5852661-9.7171326v-19.0605469l11.5388184-9.810585l14.1668091,0.0933228l4.8587646-6.7272339h11.9594116l4.8587646,6.7272339
		l14.166626-0.0933228l11.5395508,9.810585v19.0605469l-11.5859985,9.7171326H706.815979l1.8704834,43.7714539l0.0089111-0.0002136
		c5.5765381-3.1401672,24.8718872-14.075592,33.2720337-19.7458496
		C751.8415527,175.7173462,807.5725708,145.5424805,749.4315186,62.2026634z"/>
</g>
</svg>
