<?xml version="1.0" encoding="utf-8"?>
<!-- Generator: Adobe Illustrator 22.1.0, SVG Export Plug-In . SVG Version: 6.00 Build 0)  -->
<svg version="1.1" id="Layer_1" xmlns="http://www.w3.org/2000/svg" xmlns:xlink="http://www.w3.org/1999/xlink" x="0px" y="0px"
	 viewBox="0 0 95 20.333334" style="enable-background:new 0 0 95 20.333334;" xml:space="preserve">
<style type="text/css">
	.st0{fill:#FFFFFF;}
	.st1{fill:#0A80C2;}
</style>
<g>
	<path class="st0" d="M3.5973969,11.0697012v5.5474405h1.5835199c0.9296999,0,1.4322405-0.4389591,1.4322405-1.7804308v-1.5737801
		c0-1.6773605-0.5276699-2.1932297-1.7840204-2.1932297H3.5973969z M3.5973969,3.716182v4.7731209h1.0809803
		c1.0302095,0,1.65839-0.4640808,1.65839-1.9091501V5.5740423c0-1.2902002-0.4271603-1.8578594-1.4071207-1.8578594
		C4.9296465,3.7161829,3.5973969,3.7161829,3.5973969,3.716182z M9.1012468,5.2899618v0.6450996
		c0,1.8578596-0.5528002,3.0188408-1.7840195,3.6121407v0.0517902c1.4824991,0.5933094,2.0604191,1.9353008,2.0604191,3.8444405
		v1.4706993c0,2.78654-1.4322395,4.2828817-4.1967297,4.2828817H0.8334167V1.1357824h4.1716099
		C7.8700171,1.1357824,9.1012468,2.5034125,9.1012468,5.2899618"/>
	<path class="st0" d="M14.6667366,4.3356915h0.0502501l1.3071203,9.1334391h-2.6639805L14.6667366,4.3356915z M12.8073368,1.135832
		L9.9925861,19.197073h2.5383501l0.4774103-3.2767801h3.3926716l0.4774094,3.2767801h2.7896194L16.8533077,1.135832H12.8073368z"/>
	<path class="st0" d="M28.5838566,12.4629717v2.3993797c0,2.890132-1.4071198,4.5413313-4.1213589,4.5413313
		s-4.1213493-1.6512108-4.1213493-4.5413313v-9.39188c0-2.8896101,1.4071102-4.5408201,4.1213493-4.5408201
		s4.1213608,1.6512098,4.1213608,4.5408201v1.7547903h-2.6137314V5.2899618c0-1.2902-0.5527992-1.7804296-1.432251-1.7804296
		c-0.8794403,0-1.4327507,0.4902296-1.4327507,1.7804296v9.7528896c0,1.2902002,0.5533104,1.7547903,1.4327507,1.7547903
		c0.8794498,0,1.432251-0.4645996,1.432251-1.7547903v-2.5798798H28.5838566z"/>
	<polygon class="st0" points="36.1827469,1.135832 32.613678,8.9539423 32.5634193,8.9539423 32.5634193,1.135832 
		29.799448,1.135832 29.799448,19.197073 32.5634193,19.197073 32.5634193,13.6496325 33.4182587,11.9984217 36.1068459,19.197073 
		38.9467278,19.197073 35.1017685,9.1862421 38.9467278,1.135832 	"/>
	<path class="st0" d="M56.964016,11.0802126v5.6105204h1.6014709c0.9404716,0,1.4486504-0.4435692,1.4486504-1.8004313v-1.5922394
		c0-1.6963291-0.5338211-2.2178497-1.8045311-2.2178497H56.964016z M56.964016,3.6425917V8.470582h1.0927696
		c1.0420113,0,1.6778793-0.4702396,1.6778793-1.9312V5.5214815c0-1.3050699-0.4322891-1.8788898-1.4235306-1.8788898H56.964016z
		 M62.5304375,5.2343216v0.6522799c0,1.87889-0.5594597,3.053709-1.8045311,3.6536808v0.0523109
		c1.4994202,0.5999699,2.0840111,1.9573498,2.0840111,3.8885403v1.4871101c0,2.8183317-1.4486504,4.3321104-4.2444191,4.3321104
		h-4.3972397V1.0324622h4.2192993C61.2848473,1.0324622,62.5304375,2.4159825,62.5304375,5.2343216"/>
	<rect x="64.026825" y="1.0321523" class="st0" width="2.7957687" height="18.2678928"/>
	<path class="st0" d="M71.0649643,11.0802126v5.6105204h1.6014633c0.9404831,0,1.4486465-0.4435692,1.4486465-1.8004313v-1.5922394
		c0-1.6963291-0.5338211-2.2178497-1.8045273-2.2178497H71.0649643z M71.0649643,3.6425917V8.470582h1.0927734
		c1.0420227,0,1.6778793-0.4702396,1.6778793-1.9312V5.5214815c0-1.3050699-0.4322891-1.8788898-1.4235306-1.8788898H71.0649643z
		 M76.6313858,5.2343216v0.6522799c0,1.87889-0.55896,3.053709-1.8045425,3.6536808v0.0523109
		c1.4994278,0.5999699,2.0840073,1.9573498,2.0840073,3.8885403v1.4871101c0,2.8183317-1.4486618,4.3321104-4.2444305,4.3321104
		h-4.3972321V1.0324622h4.2192917C75.3857956,1.0324622,76.6313858,2.4159825,76.6313858,5.2343216"/>
	<polygon class="st0" points="78.1305466,1.0324517 78.1305466,19.3003521 85.5271301,19.3003521 85.5271301,16.6907234 
		80.9263153,16.6907234 80.9263153,1.0324517 	"/>
	<polygon class="st0" points="86.5407867,1.0324517 86.5407867,19.3003521 94.1665802,19.3003521 94.1665802,16.6907234 
		89.3370667,16.6907234 89.3370667,11.3407125 93.175354,11.3407125 93.175354,8.731082 89.3370667,8.731082 89.3370667,3.6420825 
		94.1665802,3.6420825 94.1665802,1.0324517 	"/>
	<path class="st1" d="M51.6638489,9.1344519c0,0-0.1410217-0.0030804-0.2153816-0.1789703
		c-0.0743599-0.1763992,0.9158592-0.7656097,0.9158592-0.7656097s-1.3660889,0.1076908-1.5988998,0.0133305
		c-0.232811-0.0943508-0.1953697-0.3092203-0.1953697-0.3092203s-0.8476486,0.3784399-1.0158501,0.3102407
		c-0.16819-0.0676899,0.046669-0.47229,0.046669-0.47229c-0.6789398,0.0169201-2.1737404,1.1466103-2.3819389,0.9091892
		c-0.2076797-0.2374191,0.6574097-1.0855904,1.0799484-1.5276203c0.6240692-0.6533003,0.9035492-1.6147995,0.9035492-1.6147995
		s-0.874321,0.2912703-1.1184082,0.0697403c-0.2435799-0.22153,0.4861298-1.4609604,0.4861298-1.4609604
		s-0.2599792,0.1712704-0.5317688,0.0610199c-0.2717819-0.1097403-0.0358887-1.8558099-0.0358887-1.8558099
		s-0.9871292,1.4419899-1.2589111,1.3322496s-0.3481903-0.4168997-0.3481903-0.4168997s-0.2897301,1.4173696-0.6153603,1.4086502
		c-0.3256187-0.0092297-0.7712402-0.8338096-0.7712402-0.8338096s-0.4343414,0.8984201-0.4117813,1.8132493
		c0.0153809,0.6189499,0.0840988,1.8450499-0.2256317,1.87325s-0.6522789-1.8450499-1.1379013-2.3327198
		c0,0-0.1112785,0.4461298-0.2794685,0.3779297c-0.1682014-0.0682001-0.5368996-0.9384203-0.5368996-0.9384203
		S42.3017349,4.7797518,42.068924,4.685401c-0.232811-0.0938396-1.1599503-1.1291797-1.1599503-1.1291797
		s0.3322906,1.1245697,0.1610184,1.2009695c-0.1712799,0.0764103-0.2764015-0.0194902-0.2764015-0.0194902
		s0.3194695,0.6276598,0.1841011,0.6881704c-0.1353798,0.0605097-0.3440895-0.0774298-0.3440895-0.0774298
		s0.413311,0.9497004,0.2358894,1.1389198c-0.1774292,0.1892204-0.5784302,0.02666-0.5784302,0.02666
		s0.4051094,0.9312401,0.6881714,1.2455797c0.2830696,0.3138294,0.9025192,0.7640705,0.8056107,1.0163593
		c-0.09692,0.2523003-1.4471207,0.3045998-2.1645203-0.0466595c0.2512703,0.5927906,1.3927498,1.3383999,1.4748001,1.5327492
		c0.0825615,0.1943493-0.2502403,0.0676899-0.2502403,0.0676899s0.64048,0.4738197,1.0743103,0.4343395
		c0.4338303-0.0394897,0.4640808,0.3871593,0.3230705,0.5604897c0.8035507,0.3312702,1.9563217-0.7743206,2.2537384-0.65382
		c0.1922989,0.0774307,0.0717888,0.3199902,0.0712814,0.3204994l-1.2860909,3.3526707l0.18153,0.0738392l1.2866096-3.3531799
		c0.0005112-0.0005093,0.0733299-0.2620392,0.26511-0.1840992c0.2979393,0.1205101,0.4061394,1.7358208,1.2143097,2.0563202
		c0.0117989-0.2251205,0.317421-0.5158691,0.608181-0.1835804c0.2912712,0.3328094,1.0743103,0.4343395,1.0743103,0.4343395
		s-0.3276787-0.1399899-0.1379509-0.2245998c0.1892204-0.08461,1.5194206,0.1697292,2.0963211-0.0881996
		c-0.7579193-0.2451191-1.7106895-1.2291794-1.6137695-1.4814701s0.8491898-0.1476898,1.2645607-0.1789703
		c0.4158783-0.0312805,1.3306999-0.4286995,1.3306999-0.4286995s-0.401001-0.1625595-0.4051094-0.4251099
		c-0.0041008-0.2625504,0.9286804-0.6676598,0.9286804-0.6676598s-0.244091-0.0451298-0.3030701-0.1840992
		C51.0131073,9.3698225,51.6638489,9.1344519,51.6638489,9.1344519"/>
	<polygon class="st0" points="40.7516174,18.0684624 40.4880371,18.0684624 40.4880371,15.6557417 39.620388,15.6557417 
		39.620388,15.4075518 41.6192665,15.4075518 41.6192665,15.6557417 40.7516174,15.6557417 	"/>
	<path class="st0" d="M44.2621269,16.7379532c0-0.1528091-0.0241013-0.2989597-0.0733299-0.4379292
		c-0.0487099-0.1389694-0.118969-0.2610092-0.2102394-0.3666506c-0.0912819-0.1051197-0.2030716-0.1887093-0.3348618-0.2517796
		c-0.1317902-0.0625591-0.2810097-0.0938396-0.4466515-0.0938396c-0.1661491,0-0.3148613,0.0312805-0.4466515,0.0938396
		c-0.1317902,0.0630703-0.2435799,0.1466599-0.3348618,0.2517796c-0.0917892,0.1056414-0.1620407,0.2276812-0.2107506,0.3666506
		c-0.0487213,0.1389694-0.0733299,0.28512-0.0733299,0.4379292s0.0246201,0.2989597,0.0733299,0.4379292
		s0.118969,0.2610092,0.2107506,0.3666496c0.0912819,0.1051197,0.2030716,0.1887093,0.3348618,0.2517796
		c0.1317902,0.0625591,0.2804985,0.0938396,0.4466515,0.0938396c0.1656303,0,0.3148613-0.0312805,0.4466515-0.0938396
		c0.1317902-0.0630703,0.2435799-0.1466599,0.3348618-0.2517796c0.0912704-0.1056404,0.1615295-0.2276802,0.2102394-0.3666496
		C44.238018,17.0369129,44.2621269,16.8907719,44.2621269,16.7379532 M44.5477562,16.7379532
		c0,0.2030697-0.034359,0.3897305-0.1025581,0.5599709s-0.1630707,0.317421-0.2835808,0.4415207
		c-0.1210213,0.1240997-0.2635803,0.2215309-0.4281807,0.2912693c-0.1651192,0.0702496-0.3435707,0.1051197-0.5363808,0.1051197
		s-0.3717804-0.0348701-0.5363808-0.1051197c-0.1646118-0.0697403-0.3076782-0.1671696-0.4281883-0.2912693
		c-0.1210213-0.1240997-0.2153702-0.2712708-0.2835693-0.4415207c-0.0687218-0.1702499-0.1025581-0.3569107-0.1025581-0.5599709
		s0.0338402-0.3897305,0.1025581-0.5599709c0.0681992-0.1702499,0.1625519-0.3174219,0.2835693-0.4415216
		c0.1205101-0.1240997,0.2635803-0.2210197,0.4281883-0.2912693c0.1646118-0.0702496,0.3435707-0.1056404,0.5363808-0.1056404
		s0.3712692,0.0353794,0.5363808,0.1056404c0.1646118,0.0702496,0.3071709,0.1671696,0.4281807,0.2912693
		c0.1205101,0.1240997,0.2153816,0.2712717,0.2835808,0.4415216S44.5477562,16.5348835,44.5477562,16.7379532"/>
	<polygon class="st0" points="46.9235992,18.0684624 46.6600189,18.0684624 46.6600189,15.6557417 45.792366,15.6557417 
		45.792366,15.4075518 47.7912483,15.4075518 47.7912483,15.6557417 46.9235992,15.6557417 	"/>
	<polygon class="st0" points="48.1938477,15.4074526 48.457428,15.4074526 48.457428,16.5612431 49.870697,16.5612431 
		49.870697,15.4074526 50.1337585,15.4074526 50.1337585,18.0683537 49.870697,18.0683537 49.870697,16.8094425 
		48.457428,16.8094425 48.457428,18.0683537 48.1938477,18.0683537 	"/>
	<polygon class="st0" points="51.1003876,17.8204231 52.4880066,17.8204231 52.4880066,18.0686131 50.8367958,18.0686131 
		50.8367958,15.4077024 52.4439087,15.4077024 52.4439087,15.6553926 51.1003876,15.6553926 51.1003876,16.5615025 
		52.3562164,16.5615025 52.3562164,16.8091831 51.1003876,16.8091831 	"/>
</g>
</svg>
