<?xml version="1.0" encoding="utf-8"?>
<!-- Generator: Adobe Illustrator 22.1.0, SVG Export Plug-In . SVG Version: 6.00 Build 0)  -->
<svg version="1.1" id="Layer_1" xmlns="http://www.w3.org/2000/svg" xmlns:xlink="http://www.w3.org/1999/xlink" x="0px" y="0px"
	 viewBox="0 0 1080 280" style="enable-background:new 0 0 1080 280;" xml:space="preserve">
<style type="text/css">
	.st0{fill:#FFFFFF;}
</style>
<path class="st0" d="M1037.9869385,186.2478638c0,21.1290131-8.3345947,33.2534485-26.3887939,33.2534485
	c-18.3991089,0-26.0386963-12.4694214-26.0386963-33.9484253v-69.9767609H1080v-31.868515h-94.4405518V37.6347427H941.116394
	v152.4229431c0,36.7183075,19.7891846,68.5868225,69.7868042,68.5868225c48.2628174,0,69.0968018-32.213501,69.0968018-68.2418365
	V141.904892h-42.0130615V186.2478638z M806.5077515,254.1397247l0.3449097-20.7840424
	c10.7645264,17.3191986,26.7337646,25.2888184,47.567749,25.2888184c43.0531006,0,73.956665-33.94841,73.956665-91.4507599
	c0-51.6176147-26.0438232-87.9859314-70.1367188-87.9859314c-21.1790771,0-37.8483276,8.6595917-50.692749,26.6687622v-84.52108
	h-44.4428711v232.7842407H806.5077515z M844.0059814,221.9262085c-21.5289917,0-38.1932983-20.0940704-38.1932983-48.8427429
	c0-37.0682831,12.8444214-55.4274292,37.8433228-55.4274292c26.3887329,0,38.8881836,17.6691589,38.8881836,52.6525574
	C882.5441895,200.7921753,866.5698853,221.9262085,844.0059814,221.9262085 M746.8554688,254.1397247V83.7076111h-44.7879639
	v98.3804321c0,22.5189667-12.1494141,38.7982178-35.0682983,38.7982178c-19.0941772,0-28.8187256-10.3945312-28.8187256-31.8685303
	V83.7076111h-45.1329346v112.2348022c0,37.413269,23.9539185,62.7020874,57.9823608,62.7020874
	c23.6088867,0,41.3179932-9.0045776,53.1225586-28.4036713v23.8988953H746.8554688z M494.3020935,258.6445007
	c53.1225891,0,86.8010559-35.6783447,86.8010559-89.7208405c0-54.3824921-33.3334961-89.7158508-86.8010559-89.7158508
	c-54.1624756,0-87.8409119,35.6783447-87.8409119,89.7158508
	C406.4611816,221.9262085,439.094696,258.6445007,494.3020935,258.6445007 M494.3020935,220.886261
	c-27.4287109,0-41.3180847-17.3192139-41.3180847-51.9626007c0-34.6383972,13.8893738-51.6126099,41.3180847-51.6126099
	c27.4287415,0,41.3181458,16.9742126,41.3181458,51.6126099C535.6202393,203.5670471,521.730835,220.886261,494.3020935,220.886261
	 M394.0317688,254.1397247V21.3554916h-44.4429321v84.52108c-12.8444519-18.0091705-29.5086365-26.6687622-50.6876526-26.6687622
	c-44.0979767,0-70.1367645,36.3683167-70.1367645,87.9859314c0,57.5023499,30.8985748,91.4507599,73.9565887,91.4507599
	c20.82901,0,36.8032837-7.9696198,47.5627747-25.2888184l0.3499756,20.7840424H394.0317688z M313.135498,221.9262085
	c-22.5689392,0-38.5381775-21.1340332-38.5381775-51.6176147c0-34.9833984,12.4994202-52.6525574,38.8831787-52.6525574
	c24.9988098,0,37.8482361,18.3591461,37.8482361,55.4274292
	C351.3287354,201.8321381,334.6594849,221.9262085,313.135498,221.9262085 M215.6100159,254.1397247V136.0151825
	c0-37.0632858-23.9588928-56.807373-56.5923767-56.807373c-27.4287262,0-44.7929153,10.3895187-55.2074432,29.443634V83.7076111
	h-43.053009v170.4321136h45.1379166v-97.6854858c0-25.9788055,11.4544678-39.1431885,35.0633926-39.1431885
	c21.5289917,0,29.1686401,7.2746582,29.1686401,33.5984344v103.2302399H215.6100159z M45.1379166,21.3554916H0v41.913063h45.1379166
	V21.3554916z M45.1379166,83.7076111H0v170.4321136h45.1379166V83.7076111z"/>
</svg>
