<?xml version="1.0" encoding="utf-8"?>
<!-- Generator: Adobe Illustrator 22.0.1, SVG Export Plug-In . SVG Version: 6.00 Build 0)  -->
<svg version="1.1" id="Layer_1" xmlns="http://www.w3.org/2000/svg" xmlns:xlink="http://www.w3.org/1999/xlink" x="0px" y="0px"
	 viewBox="0 0 370.8196106 140.2714081" style="enable-background:new 0 0 370.8196106 140.2714081;" xml:space="preserve">
<style type="text/css">
	.st0{fill:#FFFFFF;}
</style>
<g>
	<path class="st0" d="M85.1647339,48.3432808c-3.6185303,0-6.0316238,9.3231201-6.0316238,18.4258385
		c0,8.8859406,2.3028564,17.6584015,8.1149292,17.6584015c4.9364014,0,7.019783-6.6895142,7.019783-14.2571411
		C94.2678223,60.0799789,90.6488647,48.3432808,85.1647339,48.3432808z"/>
	<path class="st0" d="M262.5636597,57.8744698c0-2.1357384-0.8151855-3.6571693-1.9324341-3.6571693
		c-5.0791016,0-8.8347778,7.008358-9.9539948,14.5235596C259.6156006,67.7267761,262.5636597,61.8344917,262.5636597,57.8744698z"/>
	<path class="st0" d="M25.5742798,115.0147858c0,3.3770142,2.17132,6.2738037,5.1869488,6.2738037
		c3.8601704,0,8.8066425-4.4644775,11.4610615-15.3231201c-0.9653893-0.1165771-1.930851-0.1165771-2.7751503-0.1165771
		C29.1937199,105.8488922,25.5742798,110.7928162,25.5742798,115.0147858z"/>
	<path class="st0" d="M371.1529541,107.9391022c0-5.4727173-4.6558838-10.1425171-9.7269287-10.1425171
		c-1.0379028,0-2.0552979,0.2045898-3.0220337,0.5626831c-0.8829346,0.291687-3.0809937,0.9129028-5.854248,0.9129028
		c-0.788269,0-1.5724487-0.0509491-2.331543-0.1520996c-5.2353516-0.6953125-12.1559448-2.7686768-19.1818237-5.0093384
		c1.2056274-13.0720825,3.4122925-39.917717,3.4122925-44.1603966c0-6.5830688-4.7788086-13.2252808-15.4544067-13.2252808
		c-3.9827881,0-8.3312988,0.878849-11.4697876,1.6803589c-2.897644-11.7753906-13.8182373-18.0569496-24.1809692-18.0569496
		c-9.9434204,0-18.0511475,5.1254902-21.4890747,12.87146c-0.8929443-0.0694008-1.8045044-0.1124916-2.7451782-0.1124916
		c-7.7945709,0-15.27034,3.6818199-21.1421661,9.5391808c-4.5921631-7.3051796-12.4967651-8.3588295-16.6452637-8.3588295
		c-2.3338623,0-4.8612061,0.5310707-7.4140625,1.5028114c0.5681152-2.2013512,1.0928345-5.0101891,1.0928345-7.8900204
		c0-9.9337788-6.4650879-16.6079102-16.0878296-16.6079102c-10.9998169,0-17.944458,8.6231709-22.3293457,19.4904804
		c-0.387085-0.024601-0.7805176-0.0364418-1.1803589-0.0364418c-2.9528198,0-5.8256836,0.6899986-8.3624878,1.6146889
		c-4.8301392-5.1730995-13.2120972-5.7705097-16.7766113-5.7705097c-5.505127,0-9.2028809,1.24683-11.6856689,2.9180889
		l-3.786499-0.6767006c-3.5615845-0.6366596-6.8558273-0.9599609-9.7907639-0.9599609
		c-11.7313843,0-16.4005127,5.2678909-18.1882935,8.6404991c-4.9030228-4.4017296-11.1253128-6.9282188-18.1391602-6.9282188
		c-7.3162766,0-13.6322632,2.2967491-18.7931519,6.0782509c-0.6777267-2.1427612-1.9395065-4.151001-3.8355713-5.7023315
		c1.8658371-3.2741699,2.8731689-6.9896889,2.8731689-10.6038799C68.9180222,8.2543402,60.6682663,0.5,48.8560715,0.5
		c-11.8231812,0-20.0625019,11.4001503-20.0625019,21.6308002c0,3.4935303,0.9466591,6.7502403,2.6824303,9.5150814
		c-1.343441,1.3964195-2.2764282,4.4193687-2.2764282,7.9342003c0,3.3428993,0.8424683,6.246769,2.0806313,7.7244301
		c1.6055927,4.2106895,2.9629536,19.3343582,3.2489605,35.4645309C2.67224,86.8529205-1,105.5574493-1,113.9273834
		c0,14.7262726,10.97754,25.0106964,26.6951294,25.0106964c11.2506104,0,24.9284592-5.7973022,33.555481-18.49086
		c27.5750198,9.5877228,68.3725662,15.6571808,113.8976288,15.6571808c36.1524658,0,69.3217163-3.8282471,95.2579498-10.2056274
		c3.9091797,8.0106201,12.2819214,13.0383911,22.9589233,13.0383911c10.7344971,0,23.8503418-5.6619873,32.0349121-18.1028595
		c7.2736206,1.8824005,15.1069336,3.52948,20.7341919,3.6935425c0.3210449,0.0090942,0.6398315,0.0136719,0.9549561,0.0136719
		c10.678833,0,17.9103394-5.0559692,21.7593384-8.7318726c1.3051147-0.9428711,2.4115601-2.1664429,3.1772461-3.5789185
		c0.0116577-0.0163574,0.0274048-0.0380096,0.0372314-0.052002l-0.0054321-0.0066986
		C370.7428589,110.8869781,371.1529541,109.4557037,371.1529541,107.9391022z M48.8558922,9.8263798
		c7.5990601,0,10.7357788,4.5847797,10.7357788,9.5299091c0,5.5506001-4.100769,11.4605713-10.7357788,11.4605713
		c-7.7206383,0-10.7361488-4.1002197-10.7361488-8.6856098C38.119751,16.3424301,42.8247604,9.8263798,48.8558922,9.8263798z
		 M59.591671,109.9487457c-1.5679283-0.6052856-3.0155602-0.965271-4.46381-1.4502563
		c-5.7897301,14.2356567-18.6966591,21.1128693-29.4329224,21.1128693c-9.5292988,0-17.3687706-5.308548-17.3687706-15.6840363
		c0-11.21875,8.6837187-21.5924072,35.5847206-22.5578613v-2.4116821c0-13.02771-0.9654503-42.9429245-5.3084106-47.5245247
		c0,0,11.3395386-5.1868286,17.9736328-5.1868286c2.6539917,0,4.5829468,0.8438683,4.5829468,3.2555504
		c0,10.37463-1.4463501,32.9289474-3.0155716,52.9548874c4.5847778,1.4463501,6.0315628,4.2214966,6.0315628,6.9966431
		C64.1750488,104.5189362,59.591671,109.9487457,59.591671,109.9487457z M86.2603683,93.9706573
		c-15.6826172,0-22.8121338-12.1734009-22.8121338-25.0084686c0-14.586853,9.1027832-30.051693,25.2252197-30.051693
		c13.4919434,0,20.1817017,12.94104,20.1817017,26.3230553C108.8551636,79.3836823,101.2876587,93.9706573,86.2603683,93.9706573z
		 M153.9897308,102.0427399c-7.5682983,0-11.40979-10.1286011-13.0400391-22.4695435
		c-3.2595215,8.6176758-7.5673218,13.7398682-11.6419678,13.7398682c-13.2722626,0-16.2977142-15.9512329-16.2977142-30.3851357
		c0-9.6651001,1.3961792-18.7454796,1.8615723-21.6540527c0,0,1.0491867-4.0752602,10.1292648-4.0752602
		c2.2112427,0,4.8897629,0.2309608,8.1492844,0.81464c-1.9790039,8.2661705-2.7941284,15.366581-2.7941284,21.1877403
		c0,9.7785568,2.3278198,15.5997238,5.3551636,15.5997238c1.3961182,0,3.0263672-1.2786865,4.5409546-4.1914062
		c-0.1174927-2.0942993-0.1174927-4.3083496-0.1174927-6.4022217c0-10.4770546,1.1639404-20.3721962,2.6784668-25.6126747
		c0.2322388-1.7459717,3.6083374-2.6777306,7.4508057-2.6777306c4.1903076,0,8.7321777,1.0482788,10.2449341,3.1426392
		c-1.630249,1.9796104-4.7741089,15.1356201-4.7741089,28.2908325c0,12.8076782,2.9107056,25.4956665,13.039978,27.939209
		C168.774704,95.2893829,164.2337494,102.0427399,153.9897308,102.0427399z M181.123642,80.8509674
		c0.4150391,2.9135742,1.2478638,5.3052979,2.809082,7.0721436c-2.7036743,0.519104-5.616272,1.0419312-8.425354,1.0419312
		c-5.2012939,0-9.5697021-1.8707275-9.5697021-9.5703125c0-4.6814575,0.8300171-11.1310425,0.8300171-19.0392952
		c0-5.9258995-0.6239014-10.1928711-3.0142822-15.8091393c0,0,6.1348877-4.473629,11.6495361-4.473629
		c2.9135132,0,5.0968018,1.1428795,5.0968018,4.8881187v6.9709511c2.809082-16.3323402,8.5288696-31.3126907,18.4129028-31.3126907
		c5.4092407,0,6.7615356,3.5387592,6.7615356,7.281559c0,4.1599083-1.7710571,8.6363487-1.7710571,8.6363487
		c-20.2819214,0.9367104-23.1935425,23.6104126-23.1935425,36.3037758
		C180.7095795,76.8972931,181.0192108,79.9137726,181.123642,80.8509674z M229.318161,102.4553375
		c-10.4575195,0-12.6100464-8.2023926-12.6100464-17.9421997c0-6.3553467,0.9232788-13.2206421,0.9232788-18.8615723
		c0-6.5602951-1.229187-11.2744675-6.355835-11.2744675c-0.9214478,0-1.8447266,0.3056602-2.7680664,0.9204102
		c-0.6164551,5.743351-1.3327026,13.2242966-1.3327026,20.2992477c0,7.996521,1.0258789,15.1716309,4.4075928,17.9385376
		c-3.8928223,0.6147003-7.1756592,0.9235229-9.8392334,0.9235229c-7.1756592,0-10.0481567-2.666748-10.0481567-10.7634888
		c0-3.6904907,1.5379028-10.456543,1.5379028-18.7613983c0-5.2279053-0.6155396-11.0713539-2.6644897-17.2209435
		c0,0,7.9954224-4.407589,13.4307861-4.407589c2.8696899,0,5.0212402,1.1266518,5.0212402,4.8165894
		c0,0.5146484,0,1.1293297-0.1016235,1.8471107c4.4085083-4.3052406,9.4298096-6.3549805,12.4030151-6.3549805
		c8.8161621,0,10.8660889,5.8430786,10.8660889,13.7357788c0,7.0730629-1.6405029,15.683033-1.6405029,23.0648232
		c0,8.3044434,2.1534424,15.0678711,11.2773438,15.991333C241.8247528,96.4060364,234.7498016,102.4553375,229.318161,102.4553375z
		 M257.2802734,95.1527863c-10.5629425,0-21.9419708-5.9937592-21.9419708-23.9732666
		c0-14.5255127,11.5795288-28.7457848,23.7708282-28.7457848c11.8845215,0,17.6743164,7.8208008,17.6743164,15.8460083
		c0,8.3281212-6.2971802,16.8634605-18.4865723,16.8634605c-2.4388428,0-5.1798096-0.3060913-8.0252838-1.0174103
		c0,6.9063721,2.4360504,12.7981567,8.430069,12.7981567c3.5551147,0,7.2128906-2.7422485,8.9401245-7.6167603
		c5.0800781,0.5064087,7.5151367,3.1494904,7.5151367,6.1950684
		C275.1569214,90.5807037,266.5235596,95.1527863,257.2802734,95.1527863z M344.4050293,115.2049103
		c-6.5959473-0.1917725-17.4046631-2.9413605-25.7191772-5.3500366
		c-5.4945679,13.3045654-17.3423462,19.7555542-27.3208008,19.7555542c-8.8012085,0-16.0439453-5.0138092-16.0439453-14.5956573
		c0-14.7052612,13.9250488-18.7161865,26.6256104-18.7161865c2.119812,0,4.2350464,0.1128387,6.2392578,0.3323975
		c0-1.4472809,0.112854-3.0074005,0.112854-20.7227783c-3.4525757,11.03302-9.4708862,17.8273926-15.8220825,17.8273926
		c-9.9129028,0-12.2528076-7.0183716-12.2528076-15.9311523c0-7.6873779,1.6712036-16.7130775,1.6712036-23.9547157
		c0-7.5748291-1.7831421-13.1450806-9.3607788-13.1450806c-0.8887939,0-2.0032959,0-3.1196289,0.2235718
		c0.4486084-7.3544312,7.1308594-11.253479,13.928833-11.253479c7.68573,0,15.5953979,4.90271,15.5953979,15.0400391
		c0,2.1156616-1.8913574,12.0335083-1.8913574,20.1640053c0,6.1295166,1.1126099,11.1405029,4.7880859,11.1405029
		c1.894165,0,4.2341919-2.6712036,6.3502808-8.5776367c-0.2210693-8.9132729-0.7796631-16.823246-2.0042114-18.9390221
		c0,0,7.2427979-2.4517784,12.812439-2.4517784c3.3435059,0,6.1282959,0.8916588,6.1282959,3.8995399
		c0,4.9026489-3.4988403,46.038456-4.0111694,49.6915932c-0.0514526,0.3668823-0.1002197,0.7120361-0.149231,1.0574188
		c0.4098511,0.1177368,0.8222656,0.2340698,1.215271,0.360611c9.5375366,3.0701904,19.2219849,6.2969971,26.8131104,7.305603
		c7.5437622,1.0023804,13.4453735-1.5543823,13.4453735-1.5543823S356.2861328,115.5503082,344.4050293,115.2049103z"/>
	<path class="st0" d="M290.0267334,113.791153c0,4.0084229,2.8977051,8.0215607,6.0183105,8.0215607
		c3.673584,0,8.5773926-4.5698242,10.9163818-15.5991211c-1.894165-0.3339233-3.7873535-0.5558472-5.4595947-0.5558472
		C292.9244385,105.6577301,290.0267334,109.7799225,290.0267334,113.791153z"/>
</g>
</svg>
