<?xml version="1.0" encoding="utf-8"?>
<!-- Generator: Adobe Illustrator 21.1.0, SVG Export Plug-In . SVG Version: 6.00 Build 0)  -->
<svg version="1.1" id="Layer_1" xmlns="http://www.w3.org/2000/svg" xmlns:xlink="http://www.w3.org/1999/xlink" x="0px" y="0px"
	 viewBox="0 0 378.66666 145.33333" style="enable-background:new 0 0 378.66666 145.33333;" xml:space="preserve">
<style type="text/css">
	.st0{fill:#FFFFFF;}
</style>
<g>
	<path class="st0" d="M89.42159,51.2909c-3.61853,0-6.03162,9.32312-6.03162,18.42584c0,8.88593,2.30286,17.65839,8.11493,17.65839
		c4.9364,0,7.01978-6.68951,7.01978-14.25714C98.52468,63.0276,94.90572,51.2909,89.42159,51.2909z"/>
	<path class="st0" d="M266.82053,60.82209c0-2.13574-0.81519-3.65717-1.93243-3.65717c-5.0791,0-8.83478,7.00836-9.95399,14.52356
		C263.87247,70.67439,266.82053,64.78211,266.82053,60.82209z"/>
	<path class="st0" d="M29.83114,117.96241c0,3.37701,2.17132,6.2738,5.18695,6.2738c3.86017,0,8.80664-4.46448,11.46106-15.32312
		c-0.96539-0.11658-1.93085-0.11658-2.77515-0.11658C33.45058,108.79652,29.83114,113.74043,29.83114,117.96241z"/>
	<path class="st0" d="M375.40982,110.88673c0-5.47272-4.65588-10.14252-9.72693-10.14252c-1.0379,0-2.0553,0.20459-3.02203,0.56268
		c-0.88293,0.29169-3.08099,0.9129-5.85425,0.9129c-0.78827,0-1.57245-0.05096-2.33154-0.1521
		c-5.23535-0.69531-12.15594-2.76868-19.18182-5.00934c1.20563-13.07208,3.41229-39.91772,3.41229-44.1604
		c0-6.58307-4.77881-13.22528-15.45441-13.22528c-3.98279,0-8.3313,0.87885-11.46979,1.68036
		c-2.89764-11.77539-13.81824-18.05695-24.18097-18.05695c-9.94342,0-18.05115,5.12549-21.48907,12.87146
		c-0.89294-0.0694-1.8045-0.11249-2.74518-0.11249c-7.79457,0-15.27034,3.68182-21.14217,9.53918
		c-4.59216-7.30518-12.49677-8.35883-16.64526-8.35883c-2.33386,0-4.86121,0.53107-7.41406,1.50281
		c0.56812-2.20135,1.09283-5.01019,1.09283-7.89002c0-9.93378-6.46509-16.60791-16.08783-16.60791
		c-10.99982,0-17.94446,8.62317-22.32935,19.49048c-0.38708-0.0246-0.78052-0.03644-1.18036-0.03644
		c-2.95282,0-5.82568,0.69-8.36249,1.61469c-4.83014-5.1731-13.2121-5.77051-16.77661-5.77051
		c-5.50513,0-9.20288,1.24683-11.68567,2.91809l-3.7865-0.6767c-3.56158-0.63666-6.85583-0.95996-9.79077-0.95996
		c-11.73138,0-16.40051,5.26789-18.18829,8.6405c-4.90302-4.40173-11.12531-6.92822-18.13916-6.92822
		c-7.31628,0-13.63226,2.29675-18.79315,6.07825c-0.67773-2.14276-1.93951-4.151-3.83557-5.70233
		c1.86584-3.27417,2.87317-6.98969,2.87317-10.60388c0-11.10229-8.24976-18.85663-20.06195-18.85663
		c-11.82318,0-20.0625,11.40015-20.0625,21.6308c0,3.49353,0.94666,6.75024,2.68243,9.51508
		c-1.34344,1.39642-2.27643,4.41937-2.27643,7.9342c0,3.3429,0.84247,6.24677,2.08063,7.72443
		c1.60559,4.21069,2.96295,19.33435,3.24896,35.46453C6.9291,89.80054,3.25686,108.50507,3.25686,116.87501
		c0,14.72626,10.97754,25.01069,26.69513,25.01069c11.25061,0,24.92846-5.7973,33.55548-18.49085
		c27.57502,9.58772,68.37256,15.65717,113.89764,15.65717c36.15247,0,69.32172-3.82825,95.25795-10.20563
		c3.90918,8.01062,12.28192,13.03839,22.95892,13.03839c10.7345,0,23.85034-5.66199,32.03491-18.10285
		c7.27362,1.88239,15.10693,3.52948,20.73419,3.69354c0.32104,0.00909,0.63983,0.01367,0.95496,0.01367
		c10.67883,0,17.91034-5.05597,21.75934-8.73187c1.30511-0.94287,2.41156-2.16644,3.17725-3.57892
		c0.01166-0.01636,0.0274-0.03802,0.03723-0.052l-0.00543-0.00671C374.99973,113.8346,375.40982,112.40333,375.40982,110.88673z
		 M53.11275,12.774c7.59906,0,10.73578,4.58478,10.73578,9.52991c0,5.5506-4.10077,11.46057-10.73578,11.46057
		c-7.72064,0-10.73615-4.10022-10.73615-8.68561C42.37661,19.29005,47.08162,12.774,53.11275,12.774z M63.84853,112.89637
		c-1.56793-0.60529-3.01556-0.96527-4.46381-1.45026c-5.78973,14.23566-18.69666,21.11286-29.43292,21.11286
		c-9.5293,0-17.36877-5.30854-17.36877-15.68403c0-11.21875,8.68372-21.59241,35.58472-22.55786V91.9054
		c0-13.02771-0.96545-42.94293-5.30841-47.52453c0,0,11.33954-5.18683,17.97363-5.18683c2.65399,0,4.58295,0.84387,4.58295,3.25555
		c0,10.37463-1.44635,32.92895-3.01557,52.95489c4.58478,1.44635,6.03156,4.2215,6.03156,6.99664
		C68.43191,107.46656,63.84853,112.89637,63.84853,112.89637z M90.51723,96.91828c-15.68262,0-22.81213-12.1734-22.81213-25.00848
		c0-14.58685,9.10278-30.05169,25.22522-30.05169c13.49194,0,20.1817,12.94104,20.1817,26.32306
		C113.11202,82.33131,105.54452,96.91828,90.51723,96.91828z M158.2466,104.99036c-7.5683,0-11.40979-10.1286-13.04004-22.46954
		c-3.25952,8.61768-7.56732,13.73987-11.64197,13.73987c-13.27227,0-16.29772-15.95123-16.29772-30.38513
		c0-9.6651,1.39618-18.74548,1.86157-21.65405c0,0,1.04919-4.07526,10.12926-4.07526c2.21124,0,4.88977,0.23096,8.14929,0.81464
		c-1.979,8.26617-2.79413,15.36658-2.79413,21.18774c0,9.77856,2.32782,15.59973,5.35516,15.59973
		c1.39612,0,3.02637-1.27869,4.54095-4.19141c-0.11749-2.0943-0.11749-4.30835-0.11749-6.40222
		c0-10.47705,1.16394-20.37219,2.67847-25.61267c0.23224-1.74597,3.60834-2.67773,7.45081-2.67773
		c4.19031,0,8.73218,1.04828,10.24493,3.14264c-1.63025,1.97961-4.77411,15.13562-4.77411,28.29083
		c0,12.80768,2.91071,25.49567,13.03998,27.93921C173.03157,98.23701,168.49062,104.99036,158.2466,104.99036z M185.38051,83.79859
		c0.41504,2.91357,1.24786,5.3053,2.80908,7.07214c-2.70367,0.5191-5.61627,1.04193-8.42535,1.04193
		c-5.20129,0-9.5697-1.87073-9.5697-9.57031c0-4.68146,0.83002-11.13104,0.83002-19.0393c0-5.9259-0.6239-10.19287-3.01428-15.80914
		c0,0,6.13489-4.47363,11.64954-4.47363c2.91351,0,5.0968,1.14288,5.0968,4.88812v6.97095
		c2.80908-16.33234,8.52887-31.31269,18.4129-31.31269c5.40924,0,6.76154,3.53876,6.76154,7.28156
		c0,4.15991-1.77106,8.63635-1.77106,8.63635c-20.28192,0.93671-23.19354,23.61041-23.19354,36.30377
		C184.96645,79.84492,185.27608,82.8614,185.38051,83.79859z M233.57503,105.40296c-10.45752,0-12.61005-8.20239-12.61005-17.9422
		c0-6.35535,0.92328-13.22064,0.92328-18.86157c0-6.5603-1.22919-11.27447-6.35583-11.27447
		c-0.92145,0-1.84473,0.30566-2.76807,0.92041c-0.61646,5.74335-1.3327,13.2243-1.3327,20.29925
		c0,7.99652,1.02588,15.17163,4.40759,17.93854c-3.89282,0.61469-7.17566,0.92352-9.83923,0.92352
		c-7.17566,0-10.04816-2.66675-10.04816-10.76349c0-3.69049,1.5379-10.45654,1.5379-18.76141
		c0-5.2279-0.61554-11.07135-2.66449-17.22094c0,0,7.99542-4.40759,13.43079-4.40759c2.86969,0,5.02124,1.12665,5.02124,4.81659
		c0,0.51465,0,1.12933-0.10162,1.84711c4.40851-4.30524,9.42981-6.35498,12.40302-6.35498
		c8.81616,0,10.86609,5.84308,10.86609,13.73578c0,7.07306-1.6405,15.68304-1.6405,23.06482
		c0,8.30444,2.15344,15.06787,11.27734,15.99133C246.08162,99.35365,239.00667,105.40296,233.57503,105.40296z M261.53714,98.10041
		c-10.56294,0-21.94197-5.99377-21.94197-23.97327c0-14.52551,11.57953-28.74578,23.77083-28.74578
		c11.88452,0,17.67432,7.8208,17.67432,15.84601c0,8.32812-6.29718,16.86346-18.48657,16.86346
		c-2.43884,0-5.17981-0.30609-8.02528-1.0174c0,6.90637,2.43605,12.79816,8.43007,12.79816
		c3.55511,0,7.21289-2.74225,8.94012-7.61676c5.08008,0.50641,7.51514,3.14948,7.51514,6.19507
		C279.41379,93.52833,270.78043,98.10041,261.53714,98.10041z M348.6619,118.15253
		c-6.59595-0.19177-17.40466-2.94135-25.71918-5.35004c-5.49457,13.30457-17.34235,19.75556-27.3208,19.75556
		c-8.80121,0-16.04395-5.0138-16.04395-14.59565c0-14.70526,13.92505-18.71619,26.62561-18.71619
		c2.11981,0,4.23505,0.11285,6.23926,0.3324c0-1.44727,0.11285-3.00739,0.11285-20.72278
		c-3.45258,11.03302-9.47089,17.82739-15.82208,17.82739c-9.9129,0-12.25281-7.01837-12.25281-15.93115
		c0-7.68738,1.6712-16.71307,1.6712-23.95471c0-7.57483-1.78314-13.14508-9.36078-13.14508c-0.88879,0-2.0033,0-3.11963,0.22357
		c0.44861-7.35443,7.13086-11.25348,13.92883-11.25348c7.68573,0,15.5954,4.90271,15.5954,15.04004
		c0,2.11566-1.89136,12.03351-1.89136,20.164c0,6.12952,1.11261,11.1405,4.78809,11.1405c1.89417,0,4.23419-2.6712,6.35028-8.57764
		c-0.22107-8.91327-0.77966-16.82324-2.00421-18.93902c0,0,7.2428-2.45178,12.81244-2.45178
		c3.34351,0,6.1283,0.89166,6.1283,3.89954c0,4.90265-3.49884,46.03845-4.01117,49.69159
		c-0.05145,0.36688-0.10022,0.71204-0.14923,1.05743c0.40985,0.11774,0.82227,0.23407,1.21527,0.3606
		c9.53754,3.07019,19.22198,6.297,26.81311,7.3056c7.54376,1.00238,13.44537-1.55438,13.44537-1.55438
		S360.543,118.49793,348.6619,118.15253z"/>
	<path class="st0" d="M294.2836,116.73878c0,4.00842,2.89771,8.02155,6.01831,8.02155c3.67358,0,8.57739-4.56982,10.91638-15.59912
		c-1.89417-0.33392-3.78735-0.55585-5.45959-0.55585C297.1813,108.60535,294.2836,112.72755,294.2836,116.73878z"/>
</g>
</svg>
