<?xml version="1.0" encoding="utf-8"?>
<!-- Generator: Adobe Illustrator 22.1.0, SVG Export Plug-In . SVG Version: 6.00 Build 0)  -->
<svg version="1.1" id="Layer_1" xmlns="http://www.w3.org/2000/svg" xmlns:xlink="http://www.w3.org/1999/xlink" x="0px" y="0px"
	 viewBox="0 0 938 1000" style="enable-background:new 0 0 938 1000;" xml:space="preserve">
<style type="text/css">
	.st0{fill:#CCCCCC;}
	.st1{fill:#828282;}
	.st2{fill:#FFFFFF;}
</style>
<g>
	<g>
		<circle class="st0" cx="637.932251" cy="466.1662292" r="212.8149719"/>
		<path d="M637.9329834,691.1257935c-124.0440063,0-224.9576111-100.9165039-224.9576111-224.9605408
			c0-124.0410461,100.9136047-224.9546509,224.9576111-224.9546509c124.0380859,0,224.9546509,100.9136047,224.9546509,224.9546509
			C862.8876343,590.2092896,761.9710693,691.1257935,637.9329834,691.1257935z M637.9329834,265.4941406
			c-110.6513062,0-200.6741028,90.0198059-200.6741028,200.6711121s90.0227966,200.6770325,200.6741028,200.6770325
			s200.6710815-90.0256958,200.6710815-200.6770325S748.5842896,265.4941406,637.9329834,265.4941406z"/>
	</g>
	<g>
		<path class="st1" d="M217.1739044,409.8808594c0,0-264.2731323-315.5539551,25.9700928-381.8608093
			c423.0772095-96.6531677,532.9204102,546.1582031,532.9204102,546.1582031L217.1739044,409.8808594z"/>
		<path d="M791.3116455,591.3179321L210.2262726,420.4943237l-2.3595886-2.8161011
			c-5.9997253-7.1617432-146.4333496-176.8085175-105.4845352-298.5285034
			c17.2699966-51.3416443,63.7205429-85.9824295,138.0592041-102.9648895
			c99.7575226-22.7954521,190.906723-7.2832804,270.9160767,46.1096573
			c61.2245789,40.8569145,148.896698,127.6456299,218.9134216,309.0755005
			c41.6187134,107.8500671,57.1220093,197.0220642,57.7622681,200.763031L791.3116455,591.3179321z M224.214798,399.2966309
			l536.0132446,157.5701904c-16.3273315-76.2832336-87.0495605-357.4291077-262.3996277-474.4062195
			c-74.2171326-49.5067406-158.9901428-63.8391228-251.9801636-42.60289
			C180.3135376,54.8303719,139.78862,84.1117096,125.3969574,126.8924561
			C91.3727417,228.037262,206.4319763,377.1147766,224.214798,399.2966309z"/>
	</g>
	<g>
		<path class="st2" d="M180.5310059,664.3557739c-21.6733398,13.4473267-48.4766693,18.6265259-75.2728271,12.3502808
			c-53.5923004-12.5525513-86.8616257-66.1735229-74.3091125-119.7658081s66.1734772-86.8616333,119.7657776-74.3091125
			c26.7961426,6.2762451,48.5115509,22.8196106,61.958847,44.4929504"/>
		<path d="M128.2011871,694.5525513c-8.7861862,0-17.634613-1.0137939-26.4030075-3.0650635
			c-61.6544304-14.447998-100.0658035-76.3603516-85.626709-138.0117798
			c14.4420586-61.6574097,76.3721695-100.0539856,138.0028992-85.6237793
			c29.8682709,6.9987183,55.2248688,25.2054443,71.3980865,51.2675171
			c4.4167938,7.1262207,2.226181,16.4815063-4.8970337,20.8983154c-7.1202393,4.4286499-16.4785309,2.229187-20.8983002-4.8911133
			c-11.8957214-19.1789551-30.5500488-32.5716858-52.5243835-37.7177124
			c-45.3567276-10.6418152-90.9031677,17.6316528-101.5272064,62.991333
			c-10.6210785,45.3537598,17.6375732,90.9031982,62.994297,101.5331421
			c21.9713745,5.1223145,44.6304626,1.4169312,63.8094788-10.4699097c7.1231995-4.4227295,16.4755707-2.229126,20.8983002,4.8911133
			c4.4168091,7.1261597,2.226181,16.4815063-4.8970184,20.8983154
			C170.1222839,688.6773071,149.34552,694.5525513,128.2011871,694.5525513z"/>
	</g>
	<g>
		<path d="M163.9980469,591.8099976c-6.705246,0-12.1417694-5.4365234-12.1417694-12.1417847
			c0-6.6044312-2.5700378-12.8117065-7.2417755-17.4833984c-4.6717377-4.6717529-10.8819427-7.244751-17.483429-7.244751
			c-6.604454,0-12.8146591,2.572998-17.483429,7.244751c-4.7428818,4.7428589-12.429306,4.7428589-17.1721802,0
			c-4.7428741-4.7369995-4.7428741-12.4263916-0.0029678-17.1692505c9.2575073-9.260437,21.5652695-14.3590698,34.658577-14.3590698
			c13.090332,0,25.3981018,5.0986328,34.6556091,14.3590698c9.2545319,9.2545776,14.3531342,21.5563965,14.3531342,34.6526489
			C176.1398163,586.3734741,170.7032928,591.8099976,163.9980469,591.8099976z"/>
	</g>
	<g>
		<ellipse class="st2" cx="454.2966919" cy="639.3977051" rx="327.8385925" ry="339.4239807"/>
	</g>
	<g>
		<path class="st0" d="M312.0359802,689.7852173c0,0-7.9528809,96.9119263,95.2521057,103.9945679
			c103.2049866,7.0827026,112.3113403-94.7681885,112.3113403-94.7681885"/>
	</g>
	<g>
		<path class="st1" d="M376.8424683,787.5889282c0,0,34.735321-86.0042114,110.9604187-70.8269653l18.4651489,30.4284668
			C506.2680359,747.1904297,452.7284851,831.0968628,376.8424683,787.5889282z"/>
	</g>
	<g>
		<path class="st2" d="M396.729126,535.7359619l-54.6239624,55.2594604
			c-1.6480103,1.7688599-2.9182434,3.8944092-3.4862061,6.2443848
			c-4.9299011,20.3964233,29.8951416,30.0161743,55.8746643,30.0161743h19.6678772"/>
		<path d="M414.1610718,639.3988037h-19.6681213c-21.0405884,0-50.0166016-5.5965576-62.4370117-21.378479
			c-5.480957-6.9661255-7.2921448-15.1357422-5.2378845-23.6314087c1.0256348-4.244873,3.2399597-8.2763062,6.408783-11.6734009
			l54.8662109-55.5153809c4.7132263-4.7666016,12.4026184-4.8081055,17.16922-0.100769
			c4.7695312,4.7191772,4.8139954,12.4025879,0.100769,17.1751099l-54.6231079,55.260437
			c-0.1511841,0.1660156-0.2964478,0.4802246-0.3201599,0.5632324c-0.2549133,1.0493774-0.2104492,1.7192993,0.7173767,2.8991089
			c5.258667,6.6815186,24.707428,12.118042,43.3558044,12.118042h19.6681213
			c6.7052612,0,12.1417847,5.4365234,12.1417847,12.1417847
			C426.3028564,633.9622803,420.866333,639.3988037,414.1610718,639.3988037z"/>
	</g>
	<g>
		<path d="M454.2947083,994c-189.1370239,0-343.0137329-159.0761108-343.0137329-354.6011963
			c0-195.5280457,153.876709-354.6011658,343.0137329-354.6011658c189.1399841,0,343.0166931,159.0731201,343.0166931,354.6011658
			C797.3114014,834.9238892,643.4346924,994,454.2947083,994z M454.2947083,315.1520691
			c-172.4006042,0-312.6593323,145.4551086-312.6593323,324.2467346c0,178.7886963,140.258728,324.2467651,312.6593323,324.2467651
			c172.403595,0,312.662262-145.4580688,312.662262-324.2467651
			C766.9569702,460.6071777,626.6983032,315.1520691,454.2947083,315.1520691z"/>
	</g>
	<g>
		<path d="M417.5611267,806.2828979c-3.5927429,0-7.2862549-0.1304321-11.1072083-0.3912964
			c-34.8986816-2.3952026-62.0397949-14.590271-80.6615295-36.2474365
			c-29.3258057-34.1072388-26.014679-78.9570312-25.8575745-80.854187
			c0.5484009-6.6815796,6.459198-11.7089844,13.0933228-11.1043091c6.6726074,0.5454712,11.6407776,6.3910522,11.1101685,13.06073
			c-0.0474243,0.6758423-2.421814,37.0714722,20.2106018,63.2284546
			c14.2286072,16.4459229,35.6842041,25.765686,63.7709351,27.6925049
			c90.271759,6.1538696,99.0579529-80.0657349,99.3840027-83.7355347
			c0.5987854-6.6815186,6.5036621-11.5310669,13.1733398-11.0153198
			c6.6815186,0.5988159,11.6141357,6.4977417,11.0153198,13.1733398
			C531.5917358,701.1925659,520.9558105,806.2769165,417.5611267,806.2828979z"/>
	</g>
	<g>
		<path class="st2" d="M771.0518799,602.458374c23.3867798-10.1795654,50.6569214-11.4373779,76.2671509-1.3605957
			c51.220459,20.1535034,76.4051514,78.0135498,56.2516479,129.2340088s-78.0135498,76.4052124-129.2340088,56.2516479
			c-25.6102295-10.0767212-44.7115479-29.5801392-54.8911133-52.9668579"/>
	</g>
	<g>
		<g>
			<ellipse class="st2" cx="516.5446777" cy="464.1849365" rx="12.8314676" ry="20.9969482"/>
		</g>
		<g>
			<ellipse class="st2" cx="540.8257446" cy="436.0799255" rx="6.8016367" ry="11.1299505"/>
		</g>
		<g>
			<ellipse class="st2" cx="294.505249" cy="445.169281" rx="12.8314676" ry="20.9969482"/>
		</g>
		<g>
			<ellipse class="st2" cx="318.7863464" cy="417.06427" rx="6.8016367" ry="11.1299505"/>
		</g>
	</g>
	<g>
		<path class="st2" d="M538.2478027,765.4740601c-18.2991333-4.9815063-34.9398193-17.0053101-45.5845642-34.890625
			c-21.2895508-35.7706299-10.5336304-81.4417725,24.0239563-102.0093384
			c34.5576172-20.567627,79.8306885-8.243103,101.1202393,27.5275269"/>
		<path d="M538.2554932,777.6240234c-1.0552979,0-2.1283569-0.1422729-3.1954956-0.4328003
			c-22.1611328-6.0352783-40.9191895-20.3825073-52.8297424-40.4033813
			c-11.9164734-20.0148926-15.5803528-43.3439331-10.3157654-65.6947632
			c5.3001709-22.4990234,18.9952393-41.3104248,38.5655212-52.9542236
			c40.2492371-23.9574585,93.078949-9.7109985,117.7596741,31.7476807
			c3.4267578,5.7625732,1.5355225,13.2147827-4.2211304,16.6474609c-5.7744751,3.4208374-13.2148438,1.5355225-16.647522-4.2211304
			c-17.8272705-29.9572144-55.7109985-40.427124-84.4765625-23.3053589
			c-13.8551025,8.2467041-23.5661621,21.6216431-27.3426514,37.6525269
			c-3.8121033,16.1850586-1.1323853,33.1290283,7.5470886,47.7073975
			c8.6735229,14.5843506,22.2915344,25.0186768,38.3402405,29.3939819c6.473999,1.7608032,10.2861328,8.4364014,8.5253296,14.904541
			C548.4941406,774.0668945,543.597168,777.6240234,538.2554932,777.6240234z"/>
	</g>
	<g>
		<path d="M633.0799561,393.4654846c-19.2262573-13.9902954-61.9697876-38.057312-122.5856934-32.0550232
			c-7.1914062,0.7120972-13.9096985-3.0731506-15.7645264-9.0235596
			c-5.2177124-16.7386169-12.6869202-49.7941284,0.2810669-72.9588013
			c2.0742493-3.7052612,6.2605896-6.1982117,11.0419006-6.7571716
			c28.7671814-3.3630981,135.9706726-10.1280823,180.8929749,68.1086731
			c2.3651123,4.1190186,2.0008545,9.0083008-1.1259155,12.742218l-31.5784912,37.7105713
			C649.3082275,397.1233826,639.5418091,398.167572,633.0799561,393.4654846z"/>
		<path d="M642.4564819,408.586731c-5.7803955,0-11.6141357-1.7311707-16.5230103-5.3031311l0,0
			c-18.5742798-13.5142517-58.1417236-35.3670349-114.2440186-29.7911987
			c-13.0191956,1.2687073-24.9949646-6.0738525-28.552124-17.4893494
			c-5.9997559-19.2501526-13.8077087-55.559845,1.2805786-82.5053101
			c3.9484558-7.0461426,11.5074158-11.8631287,20.2224426-12.8858032
			c33.0400696-3.8624878,144.580658-9.9185486,192.8335266,74.1192932c4.9207153,8.5757141,4.00177,19.013031-2.3477173,26.5897522
			l-31.5757446,37.7088318C658.2976685,405.3052368,650.4185791,408.586731,642.4564819,408.586731z M640.2213745,383.6481018
			c1.4465942,1.0612183,3.9959106,0.6432495,4.7132568-0.2104797l31.1429443-37.1960144
			c-41.0673828-70.550293-139.3991089-64.9240417-168.6152344-61.512146
			c-1.1856995,0.1393127-1.8141479,0.6106567-1.9208374,0.7292175
			c-10.9797668,19.6266174-3.1184692,50.8199158,0.7766418,63.3144531c0.0889282,0.0237122,1.2568665,0.7173462,2.9761353,0.5543213
			C573.5365601,342.9571838,618.8606567,368.103302,640.2213745,383.6481018L640.2213745,383.6481018z"/>
	</g>
	<g>
		<path class="st2" d="M481.7320251,690.9116211c-131.8748779-20.2362671-201.5869141,0.3422852-201.5869141,0.3422852"/>
		<path d="M280.1629639,703.3920898c-5.258667,0-10.1082764-3.4326782-11.6585999-8.7268677
			c-1.8823242-6.4266357,1.7815552-13.1555786,8.2022095-15.0527344c2.9524536-0.871521,73.8406677-21.1057739,206.8694763-0.699585
			c6.6281738,1.0137939,11.1753845,7.2150879,10.1556702,13.8432617
			c-1.0137939,6.6281738-7.2032471,11.1398315-13.8432617,10.1557007
			c-127.0142517-19.4873047-195.6555176-0.2015381-196.3313904-0.0059204
			C282.4247131,703.237915,281.2834473,703.3920898,280.1629639,703.3920898z"/>
	</g>
	<g>
		<path d="M421.7437439,862.6400757c-38.7522583,0-66.2727966-20.5662842-66.699646-20.8982544
			c-5.3209229-4.0789185-6.3287964-11.6971436-2.2499084-17.0209961c4.0758972-5.3120728,11.6793213-6.3317871,16.9943237-2.2706909
			c2.2706299,1.7074585,53.1439209,38.897522,110.5327454-5.9760132c5.2823792-4.1262817,12.9124756-3.201416,17.0447083,2.0809326
			c4.1322327,5.2824097,3.2014465,12.9124756-2.0809326,17.0447388
			C469.0984192,856.0771484,443.6291504,862.6400757,421.7437439,862.6400757z"/>
	</g>
	<g>
		<path d="M776.0632935,717.2056885c-6.7052002,0-12.1417236-5.4365234-12.1417236-12.1417236
			c0-27.022583,21.9891357-49.0117188,49.0117188-49.0117188c13.090332,0,25.3980713,5.0985718,34.6585693,14.3590698
			c4.7428589,4.7428589,4.7428589,12.4263306,0,17.1691895c-4.7429199,4.7429199-12.4263916,4.7429199-17.1692505,0
			c-4.6717529-4.6716919-10.8848877-7.244751-17.4893188-7.244751c-13.6358032,0-24.7282104,11.0924072-24.7282104,24.7282104
			C788.2050781,711.769165,782.7685547,717.2056885,776.0632935,717.2056885z"/>
	</g>
	<g>
		<path d="M810.0578613,811.7312622c-6.0056152,0-12.0765381-0.4743042-18.1948242-1.4525146
			c-30.3010864-4.843689-56.8908081-21.1947632-74.8781738-46.0415039
			c-4.9147949-6.788208-3.3911743-16.2799072,3.3970947-21.1947021c6.7763672-4.9088745,16.2799072-3.3970947,21.1947021,3.3970947
			c13.2267456,18.2719116,32.7910767,30.3010254,55.0766602,33.8641357
			c46.0059204,7.3277588,89.4091797-24.0878906,96.7724609-70.0819702
			c3.5631104-22.2855835-1.7667236-44.6245117-15.005249-62.9024048
			c-13.232605-18.2719116-32.7969971-30.3010254-55.0825806-33.8641357
			c-22.2855835-3.5630493-44.6185913,1.7667236-62.8964844,14.9993896
			c-6.788208,4.9147949-16.2858276,3.4030151-21.1947021-3.3852539c-4.9207764-6.788208-3.4030151-16.2799072,3.3851929-21.1947021
			c24.8526611-17.9992676,55.230835-25.2143555,85.4962769-20.3944092
			c30.295166,4.843689,56.8848877,21.1947632,74.8781738,46.0355835s25.2380371,55.2070923,20.3944092,85.4962769
			C914.371521,771.4227295,865.4547119,811.7253418,810.0578613,811.7312622z"/>
	</g>
	<g>
		<path d="M285.5167847,501.6228027c18.93927-20.0987549,53.1228027-33.2115479,70.8418884-39.0046387
			c0.190094-41.771698-12.4496765-73.7231445-33.8070679-78.210083
			c-28.6140137-6.0112915-62.0142212,39.5293579-74.6017456,101.7184143
			c-12.5875244,62.1886902,0.4042511,117.4759827,29.0178833,123.4872742
			c26.0465393,5.4718018,56.0055847-31.8287964,70.6759033-85.4622192
			C297.8245239,516.0953369,285.5167847,501.6228027,285.5167847,501.6228027z"/>
	</g>
	<g>
		<path d="M509.5537109,529.6027222c21.1416016-21.4407654,59.9226685-28.489502,78.5048828-34.1750183
			c-3.2463989-46.7484741-23.7612305-89.2194519-52.0179443-91.9202881
			c-34.6809998-3.3148193-67.875061,44.3684998-74.1406555,106.5035095
			c-6.2655945,62.135376,16.7698059,115.1933594,51.4508362,118.5081787
			c28.4960938,2.7238159,55.9547119-29.0130615,68.329895-74.8759155
			C523.6118164,545.4920654,509.5537109,529.6027222,509.5537109,529.6027222z"/>
	</g>
	<g>
		<path d="M266.9079895,362.627655c21.8659058-10.8311157,68.9934387-27.9888,127.3599548-12.8391113
			c6.92453,1.7973328,14.3323975-0.901886,17.4124756-6.4729004c8.6643372-15.6713562,22.9859314-47.0516052,15.1152344-71.8183289
			c-1.2589417-3.9615173-4.8514709-7.0525208-9.4373169-8.3316345
			c-27.5911255-7.6959381-131.6286621-30.7012177-192.3275909,39.4153137
			c-3.195694,3.6915283-3.8687897,8.5570374-1.5804749,12.7073059l23.1106873,41.9151001
			C250.1712189,363.7511902,259.55896,366.2679443,266.9079895,362.627655z"/>
		<path d="M259.5877686,376.4804077c-9.6695404,0-18.9507599-4.873291-23.661026-13.4134521l-23.1096802-41.9151611
			c-4.7073059-8.5371704-3.5186157-18.9448242,3.0295258-26.5156555
			c64.885498-74.9522705,173.1387024-51.9937744,204.7736816-43.1660919
			c8.6290894,2.4069977,15.2631836,8.5223541,17.7472534,16.3540192
			c9.1863708,28.9048767-6.1212769,63.3855896-16.0605469,81.3670349
			c-5.7240601,10.3483582-18.7906799,15.5210571-31.0895691,12.3522034
			c-54.0895386-14.0448303-97.7269592,1.4732666-118.9216919,11.9639282l0,0
			C268.2257385,375.5229492,263.8681946,376.4804077,259.5877686,376.4804077z M234.5038757,310.1898193l22.6887207,41.1503906
			c0.3231201,0.4950256,2.4603882,1.3309631,4.3249207,0.4090576l0,0
			c24.221283-11.9994812,74.08078-29.7348633,135.800415-13.7128296c1.900116,0.4979858,3.4771118-0.2549438,3.7528076-0.6224976
			c6.4651184-11.6971436,20.8182678-41.2333984,14.1545105-62.2295227c0.0681763,0.2312317-0.3527527-0.1126404-1.1323547-0.3260803
			C385.9884033,267.0177917,290.0903931,246.4455566,234.5038757,310.1898193z"/>
	</g>
</g>
</svg>
