<?xml version="1.0" encoding="utf-8"?>
<!-- Generator: Adobe Illustrator 22.1.0, SVG Export Plug-In . SVG Version: 6.00 Build 0)  -->
<svg version="1.1" id="Layer_1" xmlns="http://www.w3.org/2000/svg" xmlns:xlink="http://www.w3.org/1999/xlink" x="0px" y="0px"
	 viewBox="0 0 1221 531" style="enable-background:new 0 0 1221 531;" xml:space="preserve">
<style type="text/css">
	.st0{fill:#FFFFFF;}
</style>
<g>
	<g>
		<path class="st0" d="M182.7935944,114.82901c-48.1099701-0.5727692-85.0514603-27.2049408-85.0514603-57.5601234
			c0-10.022934,2.2910919-13.1726074,8.3046188-13.1726074c5.72715,0,7.1590805,4.5816002,7.1590805,13.1726074
			c0,23.1961098,31.5007248,44.1005669,76.1740646,44.1005669c25.7730103-46.3910828,47.8235779-79.6101303,76.7468414-79.6101303
			c13.4589844,0,23.4819336,7.4454594,23.4819336,21.7641811c0,29.4960327-31.5007324,62.1417313-89.3466797,70.7327347
			c-9.1637726,18.0417328-20.3322601,36.9420624-20.3322601,36.9420624
			c20.3322601,12.8856506,32.072937,30.6404266,32.072937,50.9732513c0,5.1538086-4.0088348,9.7359772-8.8773956,9.7359772
			c-5.7271423,0-8.5910034-4.0093994-8.5910034-8.5904236c0-4.0094147,1.1455383-7.1590881,1.1455383-10.5957184
			c0-10.3098907-9.1637726-22.3369446-23.4819183-30.3557587c-26.9185638,42.3828278-57.8465195,70.7333069-98.5104523,70.7333069
			C43.9050255,233.098938,23,218.2080231,23,188.9978027c0-28.3504791,28.9232559-56.6998291,77.3196106-56.6998291
			c25.2002411,0,48.9685516,4.5810394,66.1505585,12.0270691
			C169.6204224,139.7428741,176.7794952,127.1430359,182.7935944,114.82901z M37.0323372,188.4250336
			c0,18.9003296,13.458992,30.9285278,36.9414864,30.9285278c33.5048599,0,62.4281235-29.2102051,85.3372726-63.8600464
			c-15.4636993-6.3004913-36.9414902-10.022934-60.1370316-10.022934
			C58.223175,145.4705811,37.0323372,169.811676,37.0323372,188.4250336z M265.8403625,35.5052757
			c-18.0411835,0-36.6551208,27.4913254-57.8465271,63.8600426c39.8053436-7.731842,67.0102844-34.6509705,67.0102844-53.8371124
			C275.0041199,39.2277184,270.9947205,35.5052757,265.8403625,35.5052757z"/>
		<path class="st0" d="M301.9163818,125.7105331c2.5774841,0,4.5821838,1.4325027,4.5821838,4.2963638
			c0,3.1496735-1.4319153,5.1537933-4.8685608,9.4501648c-13.4589844,16.6092224-36.6550903,41.2361298-68.4416504,41.2361298
			c-9.4501495,0-17.4689636-7.4448853-17.4689636-20.0458679c0-1.7171783-1.4313507-2.5769043-1.4313507-5.7265778
			c0-2.8638611,2.5769043-6.3004913,5.4407501-7.1590729c10.8820953-25.4866257,30.6415863-38.0876083,45.5325012-38.0876083
			c6.0135193,0,12.6004028,4.5821762,12.6004028,10.8826675c0,14.8909149-24.0552673,31.785965-42.9555969,36.0823364
			c-3.7224426,0.8585815-4.867981,2.8638611-4.867981,4.867981c0,2.2910919,2.5774689,7.731842,8.0182343,7.731842
			c24.0547028,0,43.2414093-22.0499878,53.5507355-34.6509705
			C295.0437012,130.2927094,298.7661438,125.7105331,301.9163818,125.7105331z M234.0469513,146.3291779
			c10.3093109-2.0041351,29.7824249-16.0364685,29.7824249-20.9044571c0-1.7183151-0.5727844-2.8638611-2.2911072-2.8638611
			C254.6655884,122.5608597,239.4882812,137.738739,234.0469513,146.3291779z"/>
		<path class="st0" d="M441.0879211,43.5235062c0,24.6274719-31.2143555,58.705101-46.3916626,58.705101
			c-6.0135193,0-8.5910034-2.0041275-8.5910034-6.0135345c0-3.4366302,1.4319458-8.3046188,10.3093262-10.3093185
			c12.599823-2.8638535,29.2096558-24.9138527,29.2096558-42.0958633c0-4.868557-2.8638611-8.304615-8.8774109-8.304615
			c-40.3781128,0-120.2746277,75.8871002-120.2746277,139.7471466c0,16.3234253,9.1637878,28.9232635,23.7683105,28.9232635
			c40.3781433,0,83.6195374-44.9597321,101.9470825-69.0149994c3.7230225-5.1537933,7.4454651-9.1632004,10.8821106-9.1632004
			c3.1496582,0,5.1543579,1.4313583,5.1543579,4.5821762c0,3.1496735-1.7183228,5.1537933-5.1543579,9.163208
			c-24.0552979,28.0646667-71.5919189,78.4651489-113.1155701,78.4651489
			c-24.0546875,0-39.2325745-14.8909149-39.2325745-41.8100433c0-74.1693726,85.910614-153.7794952,136.8838806-153.7794952
			C431.3513794,22.6184826,441.0879211,28.9183998,441.0879211,43.5235062z"/>
		<path class="st0" d="M494.3465576,125.7105331c2.5774536,0,4.581604,1.4325027,4.581604,4.2963638
			c0,3.1496735-1.4319458,5.1537933-4.8680115,9.4501648c-13.4595642,16.3222656-38.0870361,40.9503174-54.4098816,40.9503174
			c-11.4548645,0-21.4777832-8.3046265-21.4777832-22.0500031c0-24.0552673,19.1867065-68.7286072,35.223175-96.2199326
			c17.1820068-29.2096405,30.0687866-43.2419777,46.3916321-43.2419777c6.8727112,0,11.4548645,5.7277164,11.4548645,11.7412491
			c0,8.3046188-4.0093994,25.7730141-24.6274719,52.1187935c-16.0370178,20.3322601-29.7824097,32.3593216-44.9597168,44.3875275
			c-4.5821533,8.0176544-8.5915527,23.7683105-8.5915527,29.7818451c0,7.1590729,3.150238,11.1684723,8.5915527,11.1684723
			c11.4542847,0,32.6457214-20.3316803,42.3822632-33.5054321
			C487.4738464,130.2927094,491.1962891,125.7105331,494.3465576,125.7105331z M464.2777405,68.4373627
			c-11.7412415,20.9050217-15.4636841,32.0735016-17.1820068,38.3734207
			c5.7271423-4.5821762,17.7547913-16.6092377,29.4960327-32.3598938
			c15.1773071-20.0452919,20.9044495-32.9320831,20.9044495-38.9456139c0-1.7183151-0.8585815-2.5774727-2.8632812-2.5774727
			C491.1962891,32.927803,478.5964661,42.9507332,464.2777405,68.4373627z"/>
		<path class="st0" d="M544.1748047,110.2468414c5.4413452,0,8.5916138,3.1508179,8.5916138,7.1590729
			c0,4.869133-10.3093262,17.1820068-13.7459717,24.6280365c-2.8638306,5.7277222-5.1543579,12.0270691-5.1543579,16.0364685
			c0,2.8638611,1.1455078,6.0135345,3.7224121,6.0135345c9.4501953,0,25.4866333-17.1820068,35.7959595-29.4960327
			c3.4366455-4.2952118,7.159668-8.877388,10.3093262-8.877388c2.5774536,0,4.5821533,1.4325027,4.5821533,4.2963638
			c0,3.1496735-1.4318848,5.1537933-4.8685303,9.4501648c-13.7453613,16.3222656-35.7959595,37.8006439-50.4005127,37.8006439
			c-9.4501343,0-14.0322876-6.5874481-14.0322876-14.6051178c0-3.1496582,0.286377-6.0135193,0.5727539-10.022934
			c-8.3046265,8.3046265-27.77771,27.7777252-40.6639404,27.7777252c-3.7230225,0-9.7365417-5.154953-9.7365417-12.5998383
			c0-29.4960327,33.2184753-58.1334763,54.9826355-58.1334763c4.581604,0,8.8773804,2.8638611,11.7407227,6.3004913
			C536.7293701,115.974556,539.8796387,110.2468414,544.1748047,110.2468414z M484.6105652,162.6525879
			c0,1.431366,1.1455383,2.2910919,2.5774841,2.2910919c4.2951965,0,39.5183716-30.641571,39.5183716-36.0823364
			c0-3.1508102-2.5769043-5.7277145-6.2999268-5.7277145C508.9516602,123.1336288,484.6105652,149.4799957,484.6105652,162.6525879z
			"/>
		<path class="st0" d="M632.085022,125.7105331c2.5774536,0,4.581604,1.4325027,4.581604,4.2963638
			c0,3.1496735-1.4319458,5.1537933-4.868042,9.4501648c-13.4595337,16.3222656-39.2325439,40.0905914-53.8370972,40.0905914
			c-6.0140991,0-12.6004028-5.1538086-12.6004028-15.1767426c0-12.6009827,14.6045532-40.664505,16.8956299-44.9597244
			c3.4366455-5.7277145,6.3004761-10.3098907,10.3093262-10.3098907c4.0093994,0,7.1590576,2.2910843,7.1590576,6.0135345
			c0,4.0093994-2.0040894,6.0146713-3.7224121,8.5915756c-8.3046265,13.4595642-16.322876,33.2184753-16.322876,38.9461823
			c0,2.0041351,1.4313354,4.5821838,4.0088501,4.5821838c7.7318115,0,28.3504639-19.4730988,38.0870361-32.6468506
			C625.2122803,130.2927094,628.9347534,125.7105331,632.085022,125.7105331z M628.9347534,66.432663
			c0,7.4454575-7.7318726,12.0276337-11.454834,12.0276337c-4.581604,0-6.2999268-6.0135345-6.2999268-10.3093185
			c0-4.581604,4.5821533-10.3093224,10.8820801-10.3093224C625.4987183,57.8416557,628.9347534,59.5599709,628.9347534,66.432663z"
			/>
		<path class="st0" d="M643.2506104,113.6834717c0,2.0041275-2.2910767,8.3046188-4.8685303,14.8909149
			c11.7412109-12.0270538,22.3363647-21.190834,29.7824097-21.190834c6.3004761,0,10.8815308,3.7230148,10.8815308,10.8820953
			c0,9.7359695-2.289978,18.040596-10.5946045,18.040596c-3.1508179,0-5.7277222-2.2910919-5.7277222-5.7265778
			c0-2.5780487,2.0041504-6.3004913,2.0041504-7.7318497c0-0.859726-0.2858276-1.4325027-1.7183228-1.4325027
			c-3.7224121,0-22.0499878,17.4689636-31.5001221,31.2143402c-2.5775146,3.7224579-5.7271729,10.022934-8.3046265,16.3234253
			c-2.2911377,5.7265778-4.867981,11.1673431-6.5863037,11.1673431c-3.4366455,0-7.4454956-3.1496735-7.4454956-7.1590729
			c0-3.1496735,4.0088501-14.8909302,8.5910034-25.4866333c4.867981-11.4542847,8.8773804-22.0499954,10.3087769-27.2049408
			c2.2910767-7.4448929,4.2957764-11.7412491,8.8773804-11.7412491
			C640.6731567,108.5285263,643.2506104,110.5337982,643.2506104,113.6834717z"/>
		<path class="st0" d="M692.2163086,31.7822571c5.7265625,0,8.5904541,4.2957878,8.5904541,10.022934
			c0,9.1637764-13.7454224,24.0546951-18.0405884,24.0546951c-2.2911377,0-3.4366455-1.4319229-3.4366455-3.1496696
			c0-2.5774727,5.1549683-9.450161,5.1549683-14.0323372c0-3.1496735-1.4325562-3.7224426-1.4325562-7.4454613
			C683.0519409,37.2230186,686.4885864,31.7822571,692.2163086,31.7822571z"/>
		<path class="st0" d="M769.8171387,125.7105331c2.578064,0,4.5822144,1.4325027,4.5822144,4.2963638
			c0,3.1496735-1.4313965,5.1537933-4.867981,9.4501648c-13.4595947,16.3222656-39.2320557,40.0905914-53.8371582,40.0905914
			c-6.0134888,0-12.5997925-5.1538086-12.5997925-15.1767426c0-12.6009827,14.6039429-40.664505,16.8950195-44.9597244
			c3.4366455-5.7277145,6.3004761-10.3098907,10.3098755-10.3098907c4.0083008,0,7.1591187,2.2910843,7.1591187,6.0135345
			c0,4.0093994-2.0053101,6.0146713-3.7236328,8.5915756c-8.3045654,13.4595642-16.3222656,33.2184753-16.3222656,38.9461823
			c0,2.0041351,1.4313965,4.5821838,4.0093994,4.5821838c7.7318726,0,28.3493652-19.4730988,38.0864868-32.6468506
			C762.9450684,130.2927094,766.6674805,125.7105331,769.8171387,125.7105331z M766.6674805,66.432663
			c0,7.4454575-7.7318115,12.0276337-11.4542847,12.0276337c-4.5821533,0-6.3004761-6.0135345-6.3004761-10.3093185
			c0-4.581604,4.5821533-10.3093224,10.8815308-10.3093224C763.230835,57.8416557,766.6674805,59.5599709,766.6674805,66.432663z"/>
		<path class="st0" d="M774.684021,91.9192886c2.2910767,0,5.1538086-0.2858124,7.7318115-1.1449738
			c10.0229492-17.4683914,14.6051025-26.9185562,19.7589111-33.7918167
			c4.867981-6.8726883,8.3046265-10.3093185,12.6010132-10.3093185c5.1538086,0,7.1590576,2.2910881,7.1590576,6.5868759
			c0,3.7224426-1.1455688,6.0135307-6.87323,10.5957031c-4.0093994,2.8632889-5.7277222,7.1590729-13.7454224,21.4772263
			c4.867981-1.4319305,10.5957031-2.5774765,16.3223267-2.5774765c10.5957031,0,15.7506104,2.8638611,15.7506104,9.4501648
			c0,5.7277145-4.5821533,12.3140182-8.8773804,12.3140182c-3.4366455,0-4.2952271-1.7183151-4.2952271-3.4366302
			c0-1.4313583,0.5727539-2.5768967,0.5727539-4.0088272c0-1.145546-2.5780029-2.2910843-6.0134888-2.2910843
			c-5.7277222,0-14.8920898,2.2910843-22.6239014,4.8685532c-16.036499,28.3499146-31.2131958,61.8553467-31.2131958,76.4604492
			c0,2.5769043,2.0040894,5.4407654,2.0040894,7.1590881c0,2.576889-2.5769043,6.5863037-6.87323,6.5863037
			c-5.1538086,0-8.0177002-4.0094147-8.0177002-12.0270691c0-15.177887,14.031189-47.8235779,26.9180298-73.3107834
			c-13.7454224,0-16.8950806-2.0046997-16.8950806-6.5863037c0-4.5821686,2.8638916-8.3046188,8.0176392-8.3046188
			C768.9562988,89.6287689,771.2473755,91.9192886,774.684021,91.9192886z"/>
		<path class="st0" d="M847.4214478,207.3253632c-5.7277222,42.0970001-29.782959,102.2334747-65.8652954,102.2334747
			c-10.8815308,0-20.6186523-7.7318726-20.6186523-20.6186523c0-13.4584045,8.3046265-37.5136871,28.3504639-59.2778778
			c16.6092529-18.3275452,39.5189819-29.7818298,44.9597168-32.0729218
			c2.2910767-21.7641907,5.4407959-54.9826508,5.4407959-59.2778778
			c-7.1591187,10.8815155-30.6404419,42.095871-46.1052856,42.095871c-5.7265625,0-10.8815308-4.2952271-10.8815308-12.5998383
			c0-8.0187988,8.8773804-33.2196198,12.5998535-41.810051c4.0093994-9.7371216,8.3046265-14.8909225,13.4595337-14.8909225
			c4.867981,0,7.4460449,2.8638611,7.4460449,6.0135345c0,2.5768967-2.2910767,5.7277145-5.7277222,11.1684723
			c-5.7277222,8.8773956-13.4595337,32.072937-13.4595337,34.6498413c0,1.7183075,0.2869263,2.8638458,1.7183228,2.8638458
			c6.87323,0,26.9191284-26.917984,32.3598633-35.2225952c4.2952271-6.014679,8.5904541-13.4595642,10.0229492-14.6051102
			c2.5769043-2.2910843,8.8773804-5.4407578,11.4542847-5.4407578c2.578064,0,6.0135498,0.5727692,6.0135498,5.153801
			c0,1.7183151-0.2858276,3.4366302-1.1455688,5.4419022c-1.4313354,3.7224426-3.4354858,10.022934-4.0082397,18.9003296
			c-2.578064,36.940918-3.7236328,47.2508087-4.2963867,55.8412323c1.4324951-0.2858124,3.4366455-0.5727692,4.8691406-0.5727692
			c13.7453613,0,28.3504639,6.3004913,28.3504639,19.7600555c0,5.4407654-2.8638306,11.4542847-9.1643066,11.4542847
			c-5.1549683,0-7.1591187-2.8638458-7.1591187-6.8732605c0-2.2910767,0.8585815-4.0093994,0.8585815-7.4448853
			c0-2.5780487-5.4407349-5.7277069-13.1726074-5.7277069C852.5752563,206.4667816,849.4255981,206.752594,847.4214478,207.3253632z
			 M796.4470215,241.6905212c-15.7494507,17.1820068-22.3357544,37.7994995-22.3357544,48.1094055
			c0,4.867981,3.7224121,8.8773804,8.0176392,8.8773804c25.7735596,0,47.8235474-57.8465118,51.2601929-87.6283569
			C827.9483643,213.9128113,811.3379517,225.0801392,796.4470215,241.6905212z"/>
	</g>
	<g>
		<path class="st0" d="M478.1071167,257.5234985c0,24.6274719-31.2143555,58.7051086-46.3922424,58.7051086
			c-6.0135193,0-8.5904236-2.0041199-8.5904236-6.0135193c0-3.4366455,1.431366-8.3046265,10.3087463-10.3093262
			c12.6009827-2.8638611,29.2102051-24.9138489,29.2102051-42.0958557c0-4.868576-2.8638611-8.3046265-8.8773804-8.3046265
			c-40.3786926,0-120.2752075,75.8871155-120.2752075,139.7471619c0,16.3234253,9.1643677,28.9232483,23.7694702,28.9232483
			c40.377533,0,83.6189575-44.9597168,101.9465027-69.0149841c3.7224426-5.1538086,7.4460144-9.163208,10.8815308-9.163208
			c3.1507874,0,5.1549377,1.431366,5.1549377,4.5821533c0,3.1496887-1.7183228,5.1538086-5.1549377,9.163208
			c-24.0541382,28.0646667-71.5919189,78.4651489-113.1149902,78.4651489
			c-24.0552673,0-39.2320251-14.8908997-39.2320251-41.8100281c0-74.1693726,85.9100647-153.7794952,136.8833008-153.7794952
			C468.3699951,236.6184845,478.1071167,242.918396,478.1071167,257.5234985z"/>
		<path class="st0" d="M512.4665527,333.4111938c0,2.0041199,0.8597412,8.5904236,3.7235718,8.5904236
			c7.1591187,0,12.0270996-2.0041199,17.1820068-4.2952271c2.5769043-1.1455383,6.5863037-3.7224426,8.3046265-3.7224426
			c3.4366455,0,5.4407959,1.431366,5.4407959,5.1538086c0,3.4366455-4.2952271,7.1602173-13.7454224,11.7412415
			c-9.1643066,4.2963867-20.9055786,4.8691406-23.7694397,4.8691406
			c-6.5863037,16.89505-19.4719543,38.9450378-39.8047791,38.9450378c-8.5904236,0-16.89505-6.5863037-16.89505-19.4730835
			c0-26.9179688,24.0541382-52.1188049,43.2414246-52.1188049
			C507.3127441,323.1012878,512.4665527,328.5432129,512.4665527,333.4111938z M492.9934692,343.7199402
			c0-1.7183228,0.5727539-4.0093994,1.1455383-5.7277222c-11.4542847,0.5727844-27.2049561,20.3328247-27.2049561,37.8006592
			c0,4.2963562,3.1508179,7.4460144,6.0135498,7.4460144c10.5957031,0,24.6280212-25.4866333,24.6280212-32.6456909
			C495.8572998,350.3062439,492.9934692,346.8695984,492.9934692,343.7199402z"/>
		<path class="st0" d="M626.7225342,339.7105408c2.5780029,0,4.5821533,1.4324951,4.5821533,4.2963562
			c0,3.1496582-1.4313354,5.1538086-4.867981,9.4501648c-13.4595947,16.3222656-32.6456909,38.0864563-45.819458,38.0864563
			c-10.5957031,0-11.7401123-7.4460449-11.7401123-20.6186523c-12.6009521,12.3140259-25.487793,22.6227722-36.6550903,22.6227722
			c-10.3098755,0-13.1737671-8.0176392-13.1737671-12.8856506c0-6.5863037,4.0093994-13.746521,8.5915527-21.1914062
			c5.1549683-8.3046265,9.163208-17.1820068,9.163208-24.9138489c0-7.1590881,2.0053101-10.8826599,7.7318726-10.8826599
			c5.1549683,0,6.87323,3.436615,6.87323,8.8773804c0,9.7371216-5.4407349,20.9056091-10.5957031,30.0688171
			c-3.4365845,6.0135193-6.87323,12.0270386-6.87323,15.4636841c0,1.4324951,0.5727539,3.436615,2.2910767,3.436615
			c4.8691406,0,23.1967163-14.0323181,31.7871094-26.3451843c8.0187988-14.3193054,10.3098755-18.3275757,12.8867798-22.0511475
			c2.5769043-3.7224426,5.4407959-7.731842,9.163208-7.731842c4.5822144,0,6.5874634,2.8638611,6.5874634,6.0135193
			c0,2.5780334-2.005249,4.8691406-4.0093994,7.731842c-6.5863037,9.1643677-12.6009521,24.3422241-12.6009521,35.509552
			c0,3.4366455,1.4324951,4.8691406,2.8638306,4.8691406c6.3004761,0,23.4824829-17.7547607,33.5054321-30.9285278
			C619.8504028,344.2926941,623.5728149,339.7105408,626.7225342,339.7105408z"/>
		<path class="st0" d="M730.6719971,339.7105408c2.578064,0,4.5821533,1.4324951,4.5821533,4.2963562
			c0,3.1496582-1.4313354,5.1538086-4.867981,9.4501648c-13.1726074,16.3222656-32.072937,37.8006287-46.3922119,37.8006287
			c-14.3181152,0-16.8950195-13.1737366-16.8950195-25.7735596c0-6.3005066,1.7182617-14.8909302,1.7182617-21.7641907
			c0-1.431366-0.8596802-3.1496887-2.5780029-3.1496887c-8.0177002,0-35.2225952,30.3546143-41.8088989,39.2320251
			c-2.8638916,3.7224426-5.4418945,16.3234253-10.3099365,16.3234253c-5.1537476,0-9.7359619-2.0052795-9.7359619-7.7318726
			c0-7.1590576,11.1685181-36.6550903,16.6092529-53.5512695c4.0093994-12.8868103,6.0135498-17.1820374,13.4595337-17.1820374
			c2.0041504,0,6.0135498,2.0047302,6.0135498,6.0135498c0,4.0093994-1.1455078,6.5863037-4.0093994,14.6051025
			c-1.7183228,4.5821838-5.4407349,17.1820068-6.0135498,18.9003296
			c9.163208-10.309906,29.7818604-32.6457214,42.3828735-32.6457214c6.2993164,0,11.1672974,4.0094299,11.1672974,10.8815308
			c0,8.5915833-1.7171631,16.8962097-1.7171631,26.9191284c0,8.8773804,0.5716553,16.6092529,6.0135498,16.6092529
			c6.5863037,0,22.3358154-17.1820068,32.072937-30.3557739
			C723.7998657,344.2926941,727.5223389,339.7105408,730.6719971,339.7105408z"/>
		<path class="st0" d="M733.5324097,364.9113464c-5.4407349-2.8638611-10.8814697-6.8732605-10.8814697-13.7453918
			c0-15.4636841,22.6227417-28.9232483,35.5095215-28.9232483c5.4407959,0,11.741272,4.5821838,11.741272,10.5957031
			c0,6.5863037-4.0093994,16.89505-10.3098755,16.89505c-4.0083008,0-6.2993774-2.0041199-6.2993774-6.0135193
			c0-2.8638611,3.1496582-5.1549377,3.1496582-7.4448853c0-1.1455383-0.8585815-2.0052795-2.5769043-2.0052795
			c-3.7235718,0-16.6091919,8.0187988-16.6091919,15.177887c0,2.2910767,2.8638306,4.5821533,6.2993164,6.3004761
			c6.0147095,3.1496887,14.3192749,7.1590881,14.3192749,18.0405884c0,10.0229492-8.8773804,20.9044495-25.7735596,20.9044495
			c-10.8815308,0-18.3275757-7.1590576-18.3275757-14.3181458c0-4.2951965,2.8638916-7.4448853,6.873291-7.4448853
			c3.1496582,0,6.0135498,1.431366,6.0135498,5.4407654s2.5769043,6.2993469,7.1590576,6.2993469
			c5.4407349,0,9.163208-4.5810242,9.163208-9.4501648C742.982605,370.0662842,737.8287964,367.2024231,733.5324097,364.9113464z"/>
		<path class="st0" d="M852.9456177,339.7105408c2.578064,0,4.5821533,1.4324951,4.5821533,4.2963562
			c0,3.1496582-1.4313354,5.1538086-4.867981,9.4501648c-13.4595337,16.6092224-36.6550903,41.2361145-68.4421997,41.2361145
			c-9.4501953,0-17.4678345-7.4448853-17.4678345-20.0458679c0-1.7171631-1.4324951-2.5768738-1.4324951-5.7265625
			c0-2.8638611,2.578064-6.3004761,5.4407349-7.1590576c10.8826904-25.4866333,30.6416016-38.087616,45.5325317-38.087616
			c6.0146484,0,12.6009521,4.5821838,12.6009521,10.8826599c0,14.8909302-24.0552368,31.7859802-42.9555664,36.0823364
			c-3.7224731,0.8585815-4.867981,2.8638611-4.867981,4.867981c0,2.2910767,2.5769043,7.731842,8.0176392,7.731842
			c24.0552979,0,43.2425537-22.0499878,53.5512695-34.6509705
			C846.0734863,344.2926941,849.7959595,339.7105408,852.9456177,339.7105408z M785.0773315,360.3291626
			c10.3087158-2.0041199,29.7817993-16.0364685,29.7817993-20.9044495c0-1.7183228-0.5727539-2.8638611-2.2910767-2.8638611
			C805.6959229,336.5608521,790.5180664,351.738739,785.0773315,360.3291626z"/>
		<path class="st0" d="M914.2230225,339.7105408c2.578064,0,4.5822144,1.4324951,4.5822144,4.2963562
			c0,3.1496582-1.4313965,5.1538086-4.867981,9.4501648c-13.4595947,16.3222656-38.0876465,40.9503174-54.4099121,40.9503174
			c-11.4542847,0-21.4772339-8.3046265-21.4772339-22.0499878c0-24.0552673,19.1861572-68.7286072,35.2225952-96.2199402
			c17.1820068-29.2096558,30.0688477-43.2419891,46.3922729-43.2419891c6.8720703,0,11.4542847,5.7277222,11.4542847,11.7412567
			c0,8.3046112-4.0093994,25.7730103-24.6280518,52.1188049c-16.036499,20.3322449-29.7818604,32.359314-44.9597168,44.3875122
			c-4.5810547,8.0176697-8.5904541,23.7683105-8.5904541,29.7818298c0,7.1590881,3.1496582,11.1684875,8.5904541,11.1684875
			c11.4554443,0,32.6456909-20.331665,42.3828125-33.5054321
			C907.3509521,344.2926941,911.0733643,339.7105408,914.2230225,339.7105408z M884.1553955,282.4373474
			c-11.741272,20.9050293-15.4648438,32.0735168-17.1831665,38.3734436
			c5.7277222-4.5821838,17.7559204-16.6092529,29.4960327-32.3598938
			c15.1778564-20.0452881,20.9055786-32.9320984,20.9055786-38.9456177c0-1.7183228-0.8596802-2.5774841-2.8638306-2.5774841
			C911.0733643,246.9277954,898.4735107,256.9507446,884.1553955,282.4373474z"/>
		<path class="st0" d="M977.218811,339.7105408c2.5780029,0,4.5821533,1.4324951,4.5821533,4.2963562
			c0,3.1496582-1.4313354,5.1538086-4.867981,9.4501648c-13.4595947,16.3222656-38.0875854,40.9503174-54.4099121,40.9503174
			c-11.4542847,0-21.4771729-8.3046265-21.4771729-22.0499878c0-24.0552673,19.1860962-68.7286072,35.2225952-96.2199402
			c17.1820068-29.2096558,30.0687866-43.2419891,46.3922119-43.2419891c6.8721313,0,11.4542847,5.7277222,11.4542847,11.7412567
			c0,8.3046112-4.0093994,25.7730103-24.6280518,52.1188049c-16.036438,20.3322449-29.7818604,32.359314-44.9597168,44.3875122
			c-4.5810547,8.0176697-8.5904541,23.7683105-8.5904541,29.7818298c0,7.1590881,3.1497192,11.1684875,8.5904541,11.1684875
			c11.4554443,0,32.6456909-20.331665,42.3828125-33.5054321
			C970.3466797,344.2926941,974.0690918,339.7105408,977.218811,339.7105408z M947.151123,282.4373474
			c-11.7412109,20.9050293-15.4648438,32.0735168-17.1831665,38.3734436
			c5.7277222-4.5821838,17.7559204-16.6092529,29.4960327-32.3598938
			c15.1779175-20.0452881,20.9056396-32.9320984,20.9056396-38.9456177c0-1.7183228-0.8597412-2.5774841-2.8638916-2.5774841
			C974.0690918,246.9277954,961.4692993,256.9507446,947.151123,282.4373474z"/>
		<path class="st0" d="M1025.612915,339.7105408c2.5780029,0,4.5821533,1.4324951,4.5821533,4.2963562
			c0,3.1496582-1.4313965,5.1538086-4.868042,9.4501648c-13.4595337,16.3222656-39.2319946,40.0905762-53.8370972,40.0905762
			c-6.0135498,0-12.5998535-5.1538086-12.5998535-15.1767273c0-12.6009827,14.6040039-40.6645203,16.8950806-44.9597168
			c3.4366455-5.7277222,6.3004761-10.309906,10.3098755-10.309906c4.0082397,0,7.1590576,2.2911072,7.1590576,6.0135498
			c0,4.0093994-2.005249,6.014679-3.7235718,8.5915527c-8.3046265,13.4595642-16.3222656,33.2184753-16.3222656,38.9461975
			c0,2.0041504,1.4313354,4.5821838,4.0093994,4.5821838c7.7318726,0,28.3504639-19.4730835,38.0864868-32.6468506
			C1018.7407227,344.2926941,1022.4631958,339.7105408,1025.612915,339.7105408z M1022.4631958,280.4326477
			c0,7.4454651-7.7318726,12.0276489-11.4542847,12.0276489c-4.5822144,0-6.3004761-6.0135193-6.3004761-10.3093262
			c0-4.581604,4.5821533-10.3093262,10.8814697-10.3093262
			C1019.0265503,271.8416443,1022.4631958,273.559967,1022.4631958,280.4326477z"/>
		<path class="st0" d="M1128.989624,339.7105408c2.5780029,0,4.5821533,1.4324951,4.5821533,4.2963562
			c0,3.1496582-1.4313965,5.1538086-4.868042,9.4501648c-13.1726074,16.3222656-32.072876,37.8006287-46.3922119,37.8006287
			c-14.3181152,0-16.8950195-13.1737366-16.8950195-25.7735596c0-6.3005066,1.7182617-14.8909302,1.7182617-21.7641907
			c0-1.431366-0.8597412-3.1496887-2.5780029-3.1496887c-8.0177002,0-35.2226562,30.3546143-41.8088989,39.2320251
			c-2.8638916,3.7224426-5.4418945,16.3234253-10.3098755,16.3234253c-5.1538086,0-9.7360229-2.0052795-9.7360229-7.7318726
			c0-7.1590576,11.1685181-36.6550903,16.6092529-53.5512695c4.0093994-12.8868103,6.0134888-17.1820374,13.4595337-17.1820374
			c2.0041504,0,6.0135498,2.0047302,6.0135498,6.0135498c0,4.0093994-1.1455078,6.5863037-4.0093994,14.6051025
			c-1.7182617,4.5821838-5.4407959,17.1820068-6.0135498,18.9003296
			c9.163208-10.309906,29.7818604-32.6457214,42.3828125-32.6457214c6.2994385,0,11.1673584,4.0094299,11.1673584,10.8815308
			c0,8.5915833-1.7171631,16.8962097-1.7171631,26.9191284c0,8.8773804,0.5716553,16.6092529,6.0135498,16.6092529
			c6.5863037,0,22.3358154-17.1820068,32.072876-30.3557739
			C1122.1174316,344.2926941,1125.8399658,339.7105408,1128.989624,339.7105408z"/>
		<path class="st0" d="M1173.6589355,334.8425598c6.873291-8.5904541,12.0270996-13.4590149,13.7453613-13.4590149
			c3.7236328,0,8.8774414,1.7177429,8.8774414,6.0140991c0,2.0041504-1.1456299,3.4354858-3.1497803,6.5863037
			c-2.0040283,3.1496887-5.4406738,7.7318726-7.1590576,14.6039734
			c-4.5821533,18.3275452-8.0187988,39.8059082-12.3139648,60.1376038c12.0270996,0,24.3410645,0.2869568,24.3410645,8.3046265
			c0,7.1590576-4.868042,9.4501648-7.4449463,9.4501648c-3.1507568,0-5.7276611-2.0041504-7.4459229-3.7224426
			c-1.7183838-1.4325256-3.1497803-2.0052795-6.0135498-2.0052795c-1.1456299,0-3.7225342,0.2869568-6.5863037,0.5727539
			c-15.7507324,56.1282043-35.7965088,90.7792053-65.5783691,90.7792053c-10.5957031,0-20.3328857-7.7318726-20.3328857-22.6227722
			c0-28.0646973,34.3652344-66.7239075,74.7427979-77.6065979c4.0093994-17.7547607,8.0175781-41.8088989,9.4500732-52.6915588
			c-15.463623,19.1872864-37.2277832,35.7965088-50.4003906,35.7965088c-6.3005371,0-13.1738281-6.5863037-13.1738281-17.4689636
			c0-20.6186218,27.2049561-52.6915588,51.2602539-52.6915588
			C1165.6412354,324.8196106,1171.9405518,332.5514526,1173.6589355,334.8425598z M1155.9041748,425.6217346
			c-28.9233398,10.8815002-57.5595703,39.5189514-57.5595703,65.2913818c0,5.4407654,3.1496582,9.1643677,7.1590576,9.1643677
			C1122.112915,500.0774841,1143.8770752,469.1489563,1155.9041748,425.6217346z M1155.0455322,337.4205933
			c-16.8961182,0-35.2237549,29.2090759-35.2237549,38.0864563c0,2.8638611,2.0041504,5.1549377,4.2952881,5.1549377
			c8.8773193,0,39.8059082-29.7829895,39.8059082-35.509552
			C1163.9229736,343.4341125,1161.6318359,337.4205933,1155.0455322,337.4205933z"/>
	</g>
</g>
</svg>
