<?xml version="1.0" encoding="utf-8"?>
<!-- Generator: Adobe Illustrator 22.0.1, SVG Export Plug-In . SVG Version: 6.00 Build 0)  -->
<svg version="1.1" id="Layer_1" xmlns="http://www.w3.org/2000/svg" xmlns:xlink="http://www.w3.org/1999/xlink" x="0px" y="0px"
	 viewBox="0 0 180 180" style="enable-background:new 0 0 180 180;" xml:space="preserve">
<style type="text/css">
	.st0{fill:#FFFFFF;}
</style>
<g>
	<path class="st0" d="M89.9998856,180C40.3736839,180,0,139.6263123,0,89.9998856C0,40.3736839,40.3736839,0,89.9998856,0
		C139.6263123,0,180,40.3736839,180,89.9998856C180,139.6263123,139.6263123,180,89.9998856,180z M89.9998856,4.5475459
		c-47.1186142,0-85.4523392,38.333725-85.4523392,85.4523392s38.333725,85.4525681,85.4523392,85.4525681
		s85.4525681-38.3339539,85.4525681-85.4525681S137.1184998,4.5475459,89.9998856,4.5475459z"/>
	<g>
		<path class="st0" d="M55.8733635,108.3051453h-6.1192017V96.3282318L36.1036186,71.6946335h6.223896L52.7875862,89.529007
			L63.038517,71.6946335h6.2762489l-13.4414024,24.424202V108.3051453z"/>
	</g>
	<g>
		<path class="st0" d="M117.9806595,100.0418091l-3.5035477,8.2634583h-6.4330368l16.1607361-36.6107559h6.3283463
			l16.0039368,36.6107559h-6.5898285l-3.5040588-8.2634583H117.9806595z M127.1858902,78.2843399l-6.903923,16.265686h13.8078461
			L127.1858902,78.2843399z"/>
	</g>
	<rect x="88.1808701" y="48.425148" class="st0" width="3.638037" height="83.1492615"/>
	<path class="st0" d="M69.1391449,23.69804c2.1037445,0,3.3095093,1.0399456,3.3095093,2.8720646
		c0,1.9263821-1.2057648,3.0371189-3.3095093,3.0371189H67.496315v2.3638287H65.62957V23.69804H69.1391449z M67.496315,28.0471134
		h1.5489502c1.039566,0,1.6305237-0.4724579,1.6305237-1.4181423c0-0.921833-0.5909576-1.3827477-1.6305237-1.3827477H67.496315
		V28.0471134z"/>
	<path class="st0" d="M77.8734589,25.2462234v1.796339h3.9951096v1.5481853h-3.9951096v1.832119h4.5622177v1.5481853h-6.4289703
		V23.69804h6.2989273v1.5481834H77.8734589z"/>
	<path class="st0" d="M87.8958664,30.3636169l-0.649437,1.6074352H85.319664l3.5926819-8.2730122h1.9267654l3.533432,8.2730122
		h-1.9975586l-0.649437-1.6074352H87.8958664z M89.8226395,25.6478901l-1.3119583,3.2148666h2.6115952L89.8226395,25.6478901z"/>
	<path class="st0" d="M104.4549789,25.0099945l-1.0872726,1.3234978c-0.5671005-0.6498222-1.3827438-1.0753422-2.1514511-1.0753422
		c-1.4181442,0-2.5169525,1.0991955-2.5169525,2.5408077c0,1.4419956,1.0988083,2.5531178,2.5169525,2.5531178
		c0.7448502,0,1.5604935-0.3781967,2.1514511-0.9691544l1.0988083,1.1934566
		c-0.8741226,0.8983612-2.1391373,1.4773903-3.3441391,1.4773903c-2.4707794,0-4.337532-1.8317337-4.337532-4.230957
		c0-2.3872967,1.902916-4.184021,4.4083252-4.184021C102.3866272,23.6387901,103.6393356,24.1708813,104.4549789,25.0099945z"/>
	<path class="st0" d="M109.8082123,25.2462234v1.796339h3.9951172v1.5481853h-3.9951172v1.832119h4.5622177v1.5481853h-6.4289627
		V23.69804h6.2989273v1.5481834H109.8082123z"/>
	<path class="st0" d="M64.2398987,147.045166c2.1037445,0,3.3095093,1.0399475,3.3095093,2.8720703
		c0,1.9263763-1.2057648,3.0371094-3.3095093,3.0371094H62.597065v2.3638306H60.73032v-8.2730103H64.2398987z
		 M62.597065,151.3942413h1.548954c1.0395584,0,1.6305161-0.4724579,1.6305161-1.4181519
		c0-0.9218292-0.5909576-1.3827362-1.6305161-1.3827362h-1.548954V151.3942413z"/>
	<path class="st0" d="M79.4039459,151.1814728c0,2.3876801-1.9144592,4.2194214-4.4437256,4.2194214
		c-2.5292587,0-4.443718-1.8201904-4.443718-4.2194214c0-2.4107666,1.9144592-4.1955566,4.443718-4.1955566
		C77.4894867,146.9859161,79.4039459,148.7826385,79.4039459,151.1814728z M72.4309616,151.1814728
		c0,1.4539337,1.170372,2.5885162,2.5531158,2.5885162s2.5054092-1.1345825,2.5054092-2.5885162
		c0-1.453537-1.1226654-2.5646515-2.5054092-2.5646515C73.5890198,148.6168213,72.4309616,149.7279358,72.4309616,151.1814728z"/>
	<path class="st0" d="M86.7670517,152.9543457h-0.1769791h-1.7259369v2.3638306h-1.866745v-8.2730103h3.5926819
		c2.1629944,0,3.3918457,1.0399475,3.3918457,2.8720703c0,1.2761688-0.543251,2.197998-1.5481873,2.6708374l1.7613297,2.7301025
		h-2.1160583L86.7670517,152.9543457z M86.5900726,151.3942413c1.0280151,0,1.6189728-0.4724579,1.6189728-1.4181519
		c0-0.9218292-0.5909576-1.3827362-1.6189728-1.3827362h-1.7259369v2.8008881H86.5900726z"/>
	<path class="st0" d="M97.487381,148.6287384v6.6894379h-1.8675156v-6.6894379h-2.5169601v-1.5835724h6.9137344v1.5835724H97.487381
		z"/>
	<path class="st0" d="M104.1533432,153.7107391l-0.6502075,1.6074371h-1.9259949l3.5926743-8.2730103h1.9267654l3.533432,8.2730103
		h-1.9975586l-0.649437-1.6074371H104.1533432z M106.0801086,148.9950104l-1.3119583,3.2148743h2.6116028L106.0801086,148.9950104z"
		/>
	<path class="st0" d="M119.2696838,153.6872711v1.6309052h-5.4124908v-8.2730103h1.866745v6.6421051H119.2696838z"/>
</g>
</svg>
