<?xml version="1.0" encoding="utf-8"?>
<!-- Generator: Adobe Illustrator 22.0.1, SVG Export Plug-In . SVG Version: 6.00 Build 0)  -->
<svg version="1.1" id="Layer_1" xmlns="http://www.w3.org/2000/svg" xmlns:xlink="http://www.w3.org/1999/xlink" x="0px" y="0px"
	 viewBox="0 0 851 187.5761261" style="enable-background:new 0 0 851 187.5761261;" xml:space="preserve">
<style type="text/css">
	.st0{fill:#FFFFFF;}
</style>
<g>
	<g>
		<path class="st0" d="M0.9043173,54.5344429c0-1.1959343,1.0770099-2.2722015,2.272944-2.2722015h11.3617468
			c1.3156023,0,2.2722006,1.0762672,2.2722006,2.2722015v48.9158669c0,10.1658096,6.9362698,18.1783524,17.3414173,18.1783524
			s17.4618301-8.0125427,17.4618301-18.0594254V54.5344429c0-1.1959343,0.9566002-2.2722015,2.2722015-2.2722015h11.3617477
			c1.1959305,0,2.2722015,1.0762672,2.2722015,2.2722015v49.7527962c0,18.1790924-14.4708786,32.8893051-33.367981,32.8893051
			c-18.7766876,0-33.2483101-14.7102127-33.2483101-32.8893051V54.5344429z"/>
		<path class="st0" d="M112.0005875,54.5344429c0-1.1959343,0.9573441-2.2722015,2.2729492-2.2722015h28.1055679
			c14.7102203,0,26.7899628,11.9593468,26.7899628,26.4309654c0,14.8298798-12.0797424,26.9096375-26.6703033,26.9096375
			h-14.9502869v28.1055756c0,1.1959229-1.0762634,2.2722015-2.2722015,2.2722015h-11.002739
			c-1.3156052,0-2.2729492-1.0762787-2.2729492-2.2722015V54.5344429z M141.4217682,91.0115509
			c6.6976776,0,12.3190765-5.3820724,12.3190765-12.4380112c0-6.5780106-5.6213989-11.6010818-12.3190765-11.6010818h-13.873291
			v24.039093H141.4217682z"/>
		<path class="st0" d="M206.7135315,54.5344429c0-1.1959343,0.9573364-2.2722015,2.272934-2.2722015h28.1055756
			c14.7109528,0,26.7892151,11.9593468,26.7892151,26.4309654c0,14.8298798-12.0782623,26.9096375-26.6702881,26.9096375
			h-14.9488068v28.1055756c0,1.1959229-1.0762634,2.2722015-2.2729492,2.2722015h-11.0027466
			c-1.3155975,0-2.272934-1.0762787-2.272934-2.2722015V54.5344429z M236.1347046,91.0115509
			c6.69841,0,12.3190918-5.3820724,12.3190918-12.4380112c0-6.5780106-5.6206818-11.6010818-12.3190918-11.6010818h-13.8725433
			v24.039093H236.1347046z"/>
		<path class="st0" d="M301.4272156,54.5344429c0-1.1959343,0.9573364-2.2722015,2.2729492-2.2722015h48.6757812
			c1.3156128,0,2.2729492,1.0762672,2.2729492,2.2722015v9.8068123c0,1.1959305-0.9573364,2.2722015-2.2729492,2.2722015
			h-35.4008484v19.614357h29.5408325c1.1966858,0,2.2729492,1.0762711,2.2729492,2.2722015v9.9264755
			c0,1.3156052-1.0762634,2.2729492-2.2729492,2.2729492h-29.5408325v20.9292221h35.4008484
			c1.3156128,0,2.2729492,1.0762634,2.2729492,2.2722015v9.8075562c0,1.1959229-0.9573364,2.2722015-2.2729492,2.2722015
			h-48.6757812c-1.3156128,0-2.2729492-1.0762787-2.2729492-2.2722015V54.5344429z"/>
		<path class="st0" d="M395.6614685,54.5344429c0-1.1959343,0.9573364-2.2722015,2.2729492-2.2722015h34.2041626
			c14.3526917,0,26.0727234,11.4814148,26.0727234,25.7129631c0,11.0034866-7.2945557,19.9733658-17.7004395,24.1595001
			l16.3848267,30.3777771c0.8369446,1.5549316,0,3.4681396-2.032135,3.4681396h-12.5584106
			c-1.0762634,0-1.6738586-0.5983429-1.913208-1.0762787l-15.9076233-31.693367h-13.2749329v30.4974442
			c0,1.1959229-1.0762939,2.2722015-2.2714844,2.2722015h-11.003479c-1.3156128,0-2.2729492-1.0762787-2.2729492-2.2722015
			V54.5344429z M430.822998,90.4139557c6.3386536,0,11.8403931-5.5017395,11.8403931-12.1994171
			c0-6.3386765-5.5017395-11.6010818-11.8403931-11.6010818h-19.4932251v23.800499H430.822998z"/>
		<path class="st0" d="M536.298584,51.0663071c12.0782471,0,20.8103027,3.8271408,28.9417725,11.1224136
			c1.0762329,0.9566002,1.0762329,2.3918686,0.1204224,3.348465l-7.2960205,7.5346069
			c-0.8369751,0.9573441-2.0336304,0.9573441-2.989502,0c-5.0230713-4.4247284-11.7214966-7.0559311-18.418396-7.0559311
			c-15.3085938,0-26.6703186,12.7970123-26.6703186,27.8662338c0,14.9495468,11.4821472,27.6268997,26.790741,27.6268997
			c7.1755981,0,13.2749023-2.7501297,18.2979736-6.8166046c0.9558716-0.837677,2.2714844-0.7180099,2.989502,0l7.414917,7.654274
			c0.9573364,0.8369293,0.7180176,2.3918686-0.1188965,3.2287979c-8.1329956,7.8936081-18.418457,11.6010818-29.0621948,11.6010818
			c-23.920166,0-43.1755371-19.0160217-43.1755371-42.9354477C493.1230469,70.3209229,512.378418,51.0663071,536.298584,51.0663071z
			"/>
		<path class="st0" d="M594.0542603,132.8707428l37.1951294-80.4888306
			c0.3582764-0.7180061,0.9573364-1.3156052,2.0335693-1.3156052h1.1951904c1.1967163,0,1.675354,0.597599,2.0336304,1.3156052
			l36.8353882,80.4888306c0.7180176,1.5549316-0.237854,3.1098785-2.0321655,3.1098785h-10.4058838
			c-1.7942505,0-2.6311646-0.7172699-3.4681396-2.3918762l-5.8599854-12.916687h-35.7605591l-5.8600464,12.916687
			c-0.4786377,1.1959381-1.5549316,2.3918762-3.4681396,2.3918762h-10.4043579
			C594.2935791,135.9806213,593.3362427,134.4256744,594.0542603,132.8707428z M645.7210083,107.3963699l-11.9608154-26.3112946
			h-0.3582764l-11.7200317,26.3112946H645.7210083z"/>
		<path class="st0" d="M703.2373047,124.2598648l4.3051147-7.4149399c0.9573364-1.6746063,2.9894409-1.6746063,4.0657349-0.836937
			c0.5990601,0.3582611,10.2854614,7.4149475,18.0601196,7.4149475c6.2182617,0,10.8831177-4.0664749,10.8831177-9.2092133
			c0-6.0993423-5.1420288-10.2854843-15.1896362-14.3519592c-11.241333-4.5444031-22.4841919-11.7200089-22.4841919-25.8326263
			c0-10.6444817,7.8936157-22.9628296,26.909668-22.9628296c12.1986694,0,21.5283203,6.2190094,23.920166,8.0125389
			c1.1951904,0.7180061,1.5549316,2.7508698,0.7180176,3.946804l-4.5458984,6.8173447
			c-0.9558716,1.4352722-2.7501221,2.3918686-4.1846313,1.4352722c-0.9573975-0.5983353-10.0476685-6.5780106-16.6242065-6.5780106
			c-6.8173218,0-10.5247803,4.5444031-10.5247803,8.3715363c0,5.6214142,4.4239502,9.448555,14.1118774,13.3953629
			c11.6010742,4.6640625,24.9963989,11.6010818,24.9963989,27.0292969c0,12.3183517-10.6452026,23.6800919-27.5072021,23.6800919
			c-15.0692139,0-23.920166-7.0559387-26.3120728-9.3288803
			C702.758667,126.7714005,702.1610718,126.1738052,703.2373047,124.2598648z"/>
		<path class="st0" d="M796.8740234,54.5344429c0-1.1959343,0.9573364-2.2722015,2.2729492-2.2722015h48.6757812
			c1.3156128,0,2.2729492,1.0762672,2.2729492,2.2722015v9.8068123c0,1.1959305-0.9573364,2.2722015-2.2729492,2.2722015H812.421875
			v19.614357h29.5408325c1.1967163,0,2.2729492,1.0762711,2.2729492,2.2722015v9.9264755
			c0,1.3156052-1.0762329,2.2729492-2.2729492,2.2729492H812.421875v20.9292221h35.4008789
			c1.3156128,0,2.2729492,1.0762634,2.2729492,2.2722015v9.8075562c0,1.1959229-0.9573364,2.2722015-2.2729492,2.2722015
			h-48.6757812c-1.3156128,0-2.2729492-1.0762787-2.2729492-2.2722015V54.5344429z"/>
	</g>
	<path class="st0" d="M848.0170898,167.3107147h-42.0773926h-62.0174561h-42.0773926
		c-0.0946045,0-0.1860962,0.020874-0.2794189,0.0309296c-0.0932617-0.0100555-0.1846924-0.0309296-0.2792969-0.0309296h-101.989624
		h-2.1052246H495.2016296c-1.5618591,0-2.9829102,1.414566-2.9829102,2.9892426v14.6201782
		c0,1.5746765,1.421051,2.9893188,2.9829102,2.9893188h101.9896545h2.1052246h101.989624
		c0.0946045,0,0.1860352-0.0208588,0.2792969-0.0309296c0.0933228,0.0100708,0.1848145,0.0309296,0.2794189,0.0309296h42.0773926
		h62.0174561h42.0773926c1.5618286,0,2.9829102-1.4146423,2.9829102-2.9893188v-14.6201782
		C851,168.7252808,849.5789185,167.3107147,848.0170898,167.3107147z"/>
	<path class="st0" d="M454.3240356,0.3333333h-38.1138H350.229187h-36.5082703h-1.6055298H209.6260529
		c-0.0945892,0-0.1860199,0.0208669-0.2793121,0.030935c-0.0932922-0.0100681-0.1847992-0.030935-0.2793884-0.030935H107.077774
		h-2.1052856H2.9829149C1.421062,0.3333333,0,1.747981,0,3.3226626v14.6201649c0,1.5746803,1.421062,2.9893284,2.9829149,2.9893284
		h101.9895706h2.1052856h101.9895782c0.0945892,0,0.1860962-0.0208664,0.2793884-0.0309353
		c0.0932922,0.0100689,0.1847229,0.0309353,0.2793121,0.0309353H312.115387h1.6055298h36.5082703h65.9810486h38.1138
		c1.5618591,0,2.9829102-1.4146481,2.9829102-2.9893284V3.3226626
		C457.3069458,1.747981,455.8858948,0.3333333,454.3240356,0.3333333z"/>
</g>
</svg>
